<svg xmlns="http://www.w3.org/2000/svg" viewBox="0 0 42 50">
  <g>
    <g>
      <g>
        <g>
          <path d="M36,0H6A6.45,6.45,0,0,0,0,6V44a6.45,6.45,0,0,0,6,6H36a6.45,6.45,0,0,0,6-6V6A6.45,6.45,0,0,0,36,0ZM8,9H30a2,2,0,0,1,0,4H8A2,2,0,0,1,8,9ZM8,19H20a2,2,0,0,1,0,4H8a2,2,0,0,1,0-4Zm6,14H8a2,2,0,0,1,0-4h6a2,2,0,0,1,0,4Zm23.42,2.28L29,43.44A2,2,0,0,1,28,44h-.38a1.21,1.21,0,0,1-.38,0,1.94,1.94,0,0,1-1-.52L20.58,38a1.89,1.89,0,0,1,0-2.67l0,0a2,2,0,0,1,1.4-.56,2,2,0,0,1,1.41.56l4.21,4.08,7-6.8a2,2,0,0,1,2.8,0,1.88,1.88,0,0,1,.07,2.67Z" />
        </g>
      </g>
    </g>
  </g>
</svg>