<svg xmlns="http://www.w3.org/2000/svg" viewBox="0 0 108 108"><defs><style>.cls-1{fill:#fff;}.cls-2{fill:#f5f5f5;}.cls-3{fill:#ccc;}</style></defs><title>默认头像资源 2</title><g id="图层_2" data-name="图层 2"><g id="图层_1-2" data-name="图层 1"><g id="图层_2-2" data-name="图层 2"><g id="图层_1-2-2" data-name="图层 1-2"><circle class="cls-1" cx="54" cy="54" r="54"/><path class="cls-2" d="M56.7,107.9c-.9,0-1.7.1-2.6.1A21.75,21.75,0,0,0,56.7,107.9Z"/><path class="cls-2" d="M16.5,92.9C25.3,102.7,39.8,108,54,108h0A54.07,54.07,0,0,1,16.5,92.9Z"/><path class="cls-2" d="M56.9,107.9c13.3-.7,26.4-5.9,34.6-15.1h0A53.48,53.48,0,0,1,56.9,107.9Z"/><path class="cls-3" d="M83,89.6a32.78,32.78,0,0,1-7.1-2.3c-9.2-3.8-11.4-5-11.4-5l-.1-8.7S67.9,71,69,62.7c2.2.6,2.9-2.5,3-4.5s1.3-8-1.4-7.4a62.17,62.17,0,0,0,.8-9.6c-.6-6.8-5.3-13.9-17.3-14.4-10.1.5-16.7,7.6-17.4,14.4a62,62,0,0,0,.7,9.6c-2.7-.5-1.5,5.5-1.4,7.4s.8,5.2,3,4.5c1.1,8.3,4.5,10.9,4.5,10.9l-.1,8.8S41.3,83.7,32,87.5c-7.9,3.3-6.9,1.9-11.2,3.3-.7.2-3.2,1.6-4.3,2.1A53.89,53.89,0,0,0,54,108h.2a22.6,22.6,0,0,0,2.6-.1h.1A53.48,53.48,0,0,0,91.5,92.8,36.28,36.28,0,0,0,83,89.6Z"/></g></g></g></g></svg>