<svg xmlns="http://www.w3.org/2000/svg" viewBox="0 0 44 38">
  <g>
    <g>
      <defs>
        <linearGradient id="gradient-basket-green" gradientTransform="rotate(90)">
          <stop offset="0%" stop-color="#71E1C5" />
          <stop offset="100%" stop-color="#12CD9F" />
        </linearGradient>
      </defs>
      <path fill="url('#gradient-basket-green')" d="M40,8H35V4a4,4,0,0,0-4-4H13A4,4,0,0,0,9,4V8H4a3.89,3.89,0,0,0-4,4L1,34a4.13,4.13,0,0,0,4,4H39a4.13,4.13,0,0,0,4-4l1-22A3.89,3.89,0,0,0,40,8ZM26.5,24.5h-3v3a1.5,1.5,0,0,1-3,0v-3h-3a1.5,1.5,0,0,1,0-3h3v-3a1.5,1.5,0,0,1,3,0v3h3a1.5,1.5,0,0,1,0,3ZM32,8H12V4a1,1,0,0,1,1-1H31a1,1,0,0,1,1,1Z" />
    </g>
  </g>
</svg>