<svg xmlns="http://www.w3.org/2000/svg" viewBox="0 0 44 38">
  <g>
    <g>
      <path d="M26.5,21.5h-3v-3a1.5,1.5,0,0,0-3,0v3h-3a1.5,1.5,0,0,0,0,3h3v3a1.5,1.5,0,0,0,3,0v-3h3a1.5,1.5,0,0,0,0-3Z" />
      <path d="M40,8H35V4a4,4,0,0,0-4-4H13A4,4,0,0,0,9,4V8H4a3.89,3.89,0,0,0-4,4L1,34a4.13,4.13,0,0,0,4,4H39a4.13,4.13,0,0,0,4-4l1-22A3.89,3.89,0,0,0,40,8ZM12,4a1,1,0,0,1,1-1H31a1,1,0,0,1,1,1V8H12ZM40,34a1,1,0,0,1-1,1H5a1,1,0,0,1-1-1L3,12a1,1,0,0,1,1-1H9v2.5a1.5,1.5,0,0,0,3,0V11H32v2.5a1.5,1.5,0,0,0,3,0V11h5a1,1,0,0,1,1,1Z" />
    </g>
  </g>
</svg>