<svg xmlns="http://www.w3.org/2000/svg" viewBox="0 0 42 42">
  <defs>
    <style>.cls-bottle{fill:none;}</style>
  </defs>
  <g>
    <g>
      <path d="M25,21.94H22.5v-2.4a1.5,1.5,0,0,0-3,0v2.4H17.05a1.5,1.5,0,0,0,0,3H19.5v2.4a1.5,1.5,0,1,0,3,0v-2.4H25a1.5,1.5,0,0,0,0-3Z" />
      <path d="M36,34.4,33.53,15.86a5.9,5.9,0,0,0-5.88-5.1h-.72a1,1,0,1,1,0-2h1a3.92,3.92,0,0,0,3.95-3.9A3.93,3.93,0,0,0,27.92,1H14.08a3.93,3.93,0,0,0-3.95,3.9,3.92,3.92,0,0,0,3.95,3.9h1a1,1,0,1,1,0,2h-.72a5.9,5.9,0,0,0-5.88,5.1L6.05,34.4A5.87,5.87,0,0,0,11.93,41H30.07A5.87,5.87,0,0,0,36,34.4ZM32.3,37a3,3,0,0,1-2.23,1H11.93A2.92,2.92,0,0,1,9.7,37,2.81,2.81,0,0,1,9,34.79l2.43-18.54a2.9,2.9,0,0,1,2.9-2.49h.72a4,4,0,1,0,0-8h-1a.93.93,0,0,1-.95-.9.93.93,0,0,1,.95-.9H27.92a.93.93,0,0,1,.95.9.93.93,0,0,1-.95.9h-1a4,4,0,1,0,0,8h.72a2.9,2.9,0,0,1,2.9,2.49L33,34.79A2.81,2.81,0,0,1,32.3,37Z" />
      <rect class="cls-bottle" width="42" height="42" />
    </g>
  </g>
</svg>