<svg xmlns="http://www.w3.org/2000/svg" viewBox="0 0 42 42">
  <defs>
    <style>.cls-bubble{fill:none;}</style>
  </defs>
  <g>
    <g>
      <rect class="cls-bubble" width="42" height="42" />
      <path d="M34,7a2.93,2.93,0,0,1,3,2.83V28.74A3.3,3.3,0,0,1,34,32H13.16a9,9,0,0,0-3.35.65l-.21.09L5.16,34.92,5,35V9.83A2.93,2.93,0,0,1,8,7H34m0-3H8A5.92,5.92,0,0,0,2,9.83V35.08A3,3,0,0,0,5,38a3.08,3.08,0,0,0,1.48-.38l4.44-2.19A6.11,6.11,0,0,1,13.16,35H34a6.29,6.29,0,0,0,6-6.26V9.83A5.92,5.92,0,0,0,34,4Z" />
    </g>
  </g>
</svg>