<svg xmlns="http://www.w3.org/2000/svg" viewBox="0 0 42 42">
  <defs>
    <style>.cls-check-circle{fill-rule:evenodd;}</style>
  </defs>
  <g>
    <g>
      <path d="M21,2A19,19,0,1,1,2,21,19,19,0,0,1,21,2m0-2A21,21,0,1,0,42,21,21,21,0,0,0,21,0Z" />
      <path class="cls-check-circle" d="M33.93,13.17l-17.28,17a.48.48,0,0,1-.68,0L8.08,22a.3.3,0,0,1,0-.38l1.13-1.53A.24.24,0,0,1,9.52,20l6.4,4.9a.63.63,0,0,0,.76,0L32.5,11.75a.27.27,0,0,1,.36,0l1.07,1.05A.26.26,0,0,1,33.93,13.17Z" />
    </g>
  </g>
</svg>