<svg xmlns="http://www.w3.org/2000/svg" viewBox="0 0 32 32"><defs><style>.cls-1{fill:#eee;fill-rule:evenodd;}.cls-2{fill:#999;}.cls-3{fill:none;}</style></defs><title>删除资源 3</title><g id="图层_2" data-name="图层 2"><g id="图层_1-2" data-name="图层 1"><path class="cls-1" d="M25.85,25.9a14,14,0,1,1,.06-19.8,14,14,0,0,1-.06,19.8Z"/><path class="cls-2" d="M17.47,16.07l4.34-4.35a1,1,0,0,0,.3-.76,1,1,0,0,0-.3-.76,1.15,1.15,0,0,0-1.52,0l-4.35,4.34-4.19-4.19a1.08,1.08,0,1,0-1.52,1.53l4.19,4.19-4.19,4.26a1.12,1.12,0,0,0,0,1.37,1.08,1.08,0,0,0,1.52.08l4.19-4.19,4.19,4.19a1.1,1.1,0,0,0,1.53,0A1,1,0,0,0,22,21a1,1,0,0,0-.3-.76Z"/><rect class="cls-3" width="32" height="32"/></g></g></svg>