<svg xmlns="http://www.w3.org/2000/svg" xmlns:xlink="http://www.w3.org/1999/xlink" viewBox="0 0 88 88">
  <defs>
    <style>.cls-clock-circle{fill:url(#gradient_2);}.cls-clock-content{fill:url(#gradient_23);}</style>
    <linearGradient id="gradient_2" x1="-1384.44" y1="259.77" x2="-1384.44" y2="260.77" gradientTransform="matrix(88, 0, 0, -88, 121876.21, 22947.93)" gradientUnits="userSpaceOnUse">
      <stop offset="0" stop-color="#12cd9f" />
      <stop offset="1" stop-color="#71e1c5" />
    </linearGradient>
    <linearGradient id="gradient_23" x1="44" y1="66.38" x2="44" y2="21.62" gradientUnits="userSpaceOnUse">
      <stop offset="0" stop-color="#ceefe3" />
      <stop offset="1" stop-color="#fff" />
    </linearGradient>
  </defs>
  <g>
    <g>
      <path class="cls-clock-circle" d="M44,0A44,44,0,1,1,0,44,44,44,0,0,1,44,0Z" />
      <path class="cls-clock-content" d="M44,24.61A20.89,20.89,0,1,0,64.89,45.49,20.88,20.88,0,0,0,44,24.61Zm8.1,23.44H43.57A2.56,2.56,0,0,1,41,45.49V32.7a2.56,2.56,0,0,1,5.11,0V42.93h6a2.56,2.56,0,0,1,0,5.12ZM22.45,36.26a7.67,7.67,0,1,1,9.74-11,23.51,23.51,0,0,0-9.74,11Zm33.36-11a7.67,7.67,0,1,1,9.74,11,23.51,23.51,0,0,0-9.74-11Z" />
    </g>
  </g>
</svg>