<svg xmlns="http://www.w3.org/2000/svg" viewBox="0 0 56 48">
  <g>
    <g>
      <path d="M50.12,0H5.88A5.88,5.88,0,0,0,0,5.88V37.12A5.88,5.88,0,0,0,5.88,43H20.43a3,3,0,0,1,2.12.88l3.18,3.18a3.21,3.21,0,0,0,4.54,0l3.18-3.18A3,3,0,0,1,35.57,43H50.12A5.88,5.88,0,0,0,56,37.12V5.88A5.88,5.88,0,0,0,50.12,0ZM52,37.12A1.88,1.88,0,0,1,50.12,39H35.57a7,7,0,0,0-4.95,2L28,43.67l-2.62-2.62a7,7,0,0,0-4.95-2H5.88A1.88,1.88,0,0,1,4,37.12V5.88A1.88,1.88,0,0,1,5.88,4H50.12A1.88,1.88,0,0,1,52,5.88Z" />
      <path d="M44,14H12a2,2,0,0,0,0,4H44a2,2,0,0,0,0-4Z" />
      <path d="M30,25H12a2,2,0,0,0,0,4H30a2,2,0,0,0,0-4Z" />
    </g>
  </g>
</svg>