<svg xmlns="http://www.w3.org/2000/svg" viewBox="0 0 88 88">
  <defs>
    <style>.cls-medical-circle-green{fill:#12cd9f;}.cls-medical-green-content{fill:#fff;}</style>
  </defs>
  <g>
    <g>
      <circle class="cls-medical-circle-green" cx="44" cy="44" r="44" />
      <path class="cls-medical-green-content" d="M64.69,51.57,51.28,65a10.55,10.55,0,0,1-14.74,0L23.13,51.57a10.57,10.57,0,0,1,0-15L36.54,23.13a10.54,10.54,0,0,1,15,0L64.94,36.56A10.44,10.44,0,0,1,64.69,51.57Z" />
      <path class="cls-medical-circle-green" d="M52,40H48V36a3,3,0,0,0-3-3H43a3,3,0,0,0-3,3v4H36a3,3,0,0,0-3,3v2a3,3,0,0,0,3,3h4v4a3,3,0,0,0,3,3h2a3,3,0,0,0,3-3V48h4a3,3,0,0,0,3-3V43A3.07,3.07,0,0,0,52,40Z" />
    </g>
  </g>
</svg>