<svg xmlns="http://www.w3.org/2000/svg" viewBox="0 0 77 77">
  <defs>
    <style>.cls-cross-dash{fill-rule:evenodd;}</style>
  </defs>
  <g>
    <g>
      <path d="M66.5,77H61.93a.5.5,0,0,1,0-1H66.5a9.31,9.31,0,0,0,3.19-.55.49.49,0,0,1,.64.3.5.5,0,0,1-.3.64A10.57,10.57,0,0,1,66.5,77ZM55.93,77h-8a.5.5,0,0,1,0-1h8a.5.5,0,1,1,0,1Zm-14,0h-8a.5.5,0,0,1,0-1h8a.5.5,0,1,1,0,1Zm-14,0h-8a.5.5,0,0,1,0-1h8a.5.5,0,1,1,0,1Zm-14,0H10.5a10.26,10.26,0,0,1-4.63-1.08A.5.5,0,1,1,6.31,75a9.47,9.47,0,0,0,4.19,1h3.43a.5.5,0,1,1,0,1Zm60.66-4.12a.46.46,0,0,1-.29-.1.49.49,0,0,1-.11-.7A9.46,9.46,0,0,0,76,66.5V64.79a.5.5,0,0,1,1,0V66.5a10.41,10.41,0,0,1-2,6.17A.49.49,0,0,1,74.59,72.88Zm-72.8-1a.51.51,0,0,1-.44-.26A10.54,10.54,0,0,1,0,66.5V63.64a.5.5,0,0,1,1,0V66.5a9.42,9.42,0,0,0,1.23,4.67.5.5,0,0,1-.19.68A.47.47,0,0,1,1.79,71.92ZM76.5,59.29a.5.5,0,0,1-.5-.5v-8a.5.5,0,1,1,1,0v8A.5.5,0,0,1,76.5,59.29ZM.5,58.14a.5.5,0,0,1-.5-.5v-8a.5.5,0,0,1,1,0v8A.5.5,0,0,1,.5,58.14Zm76-12.85a.5.5,0,0,1-.5-.5v-8a.5.5,0,1,1,1,0v8A.5.5,0,0,1,76.5,45.29ZM.5,44.14a.5.5,0,0,1-.5-.5v-8a.5.5,0,0,1,1,0v8A.5.5,0,0,1,.5,44.14Zm76-12.85a.5.5,0,0,1-.5-.5v-8a.5.5,0,1,1,1,0v8A.5.5,0,0,1,76.5,31.29ZM.5,30.14a.5.5,0,0,1-.5-.5v-8a.5.5,0,0,1,1,0v8A.5.5,0,0,1,.5,30.14Zm76-12.85a.5.5,0,0,1-.5-.5V10.5a9.75,9.75,0,0,0-.14-1.62.51.51,0,0,1,.41-.58.51.51,0,0,1,.58.41A10.72,10.72,0,0,1,77,10.5v6.29A.5.5,0,0,1,76.5,17.29ZM.5,16.14a.5.5,0,0,1-.5-.5V10.5a10.53,10.53,0,0,1,.42-3A.51.51,0,0,1,1,7.2a.5.5,0,0,1,.34.62A9.7,9.7,0,0,0,1,10.5v5.14A.5.5,0,0,1,.5,16.14ZM73.67,4a.51.51,0,0,1-.36-.15A9.4,9.4,0,0,0,66.5,1,.5.5,0,0,1,66,.5a.5.5,0,0,1,.5-.5A10.42,10.42,0,0,1,74,3.18a.5.5,0,0,1,0,.71A.52.52,0,0,1,73.67,4ZM4.17,3.26a.49.49,0,0,1-.39-.19.5.5,0,0,1,.07-.7A10.52,10.52,0,0,1,10.5,0h8a.5.5,0,0,1,.5.5.5.5,0,0,1-.5.5h-8a9.52,9.52,0,0,0-6,2.14A.51.51,0,0,1,4.17,3.26ZM60.5,1h-8A.5.5,0,0,1,52,.5a.5.5,0,0,1,.5-.5h8a.5.5,0,0,1,.5.5A.5.5,0,0,1,60.5,1Zm-14,0h-8A.5.5,0,0,1,38,.5a.5.5,0,0,1,.5-.5h8a.5.5,0,0,1,.5.5A.5.5,0,0,1,46.5,1Zm-14,0h-8A.5.5,0,0,1,24,.5a.5.5,0,0,1,.5-.5h8a.5.5,0,0,1,.5.5A.5.5,0,0,1,32.5,1Z" />
      <path class="cls-cross-dash" d="M52.5,40.5h-12v12a2,2,0,0,1-4,0v-12h-12a2,2,0,0,1,0-4h12v-12a2,2,0,0,1,4,0v12h12a2,2,0,0,1,0,4Z" />
    </g>
  </g>
</svg>