<svg xmlns="http://www.w3.org/2000/svg" viewBox="0 0 36 44">
  <g>
    <g>
      <path d="M4,10.63H7.91a10.06,10.06,0,0,0,9.92,9.6h.06a10.07,10.07,0,0,0,10-10.06A10.06,10.06,0,0,0,18,0h-.06l0,3.55h0V0A10,10,0,0,0,8.53,6.58H4a2,2,0,0,0-2,2A2.06,2.06,0,0,0,4,10.63Zm19.82,0a6,6,0,0,1-6,5.55,5.94,5.94,0,0,1-4.23-1.8,6.06,6.06,0,0,1-1.71-3.75Z" />
      <path d="M20.64,28.83H15.36A6.42,6.42,0,0,0,9,35.27v2.29A6.42,6.42,0,0,0,15.36,44h5.28A6.42,6.42,0,0,0,27,37.56V35.27A6.42,6.42,0,0,0,20.64,28.83Z" />
      <path d="M24,21.75H12A12.07,12.07,0,0,0,0,33.89v4A6,6,0,0,0,6,44a2,2,0,0,0,0-4,2,2,0,0,1-2-2v-4a8,8,0,0,1,8-8.09H24a8,8,0,0,1,8,8.09v4a2,2,0,0,1-2,2,2,2,0,0,0,0,4,6,6,0,0,0,6-6.07v-4A12.07,12.07,0,0,0,24,21.75Z" />
    </g>
  </g>
</svg>