<svg xmlns="http://www.w3.org/2000/svg" viewBox="0 0 38 38">
  <g>
    <g>
      <path d="M36.5,17A1.5,1.5,0,0,0,35,18.5,16.5,16.5,0,0,1,18.5,35,15.5,15.5,0,0,1,3,19.5v-1A15.5,15.5,0,0,1,18.5,3a1.5,1.5,0,0,0,0-3A18.5,18.5,0,0,0,0,18.5v1A18.5,18.5,0,0,0,18.5,38,19.5,19.5,0,0,0,38,18.5,1.5,1.5,0,0,0,36.5,17Z" />
      <path d="M10.88,27.12a3.33,3.33,0,0,0,2.44.88c3.24,0,7.7-3,8.85-4.11L35.26,10.8A5.89,5.89,0,0,0,37,6.72a5.63,5.63,0,0,0-1.64-4.08A5.39,5.39,0,0,0,31.28,1a5.85,5.85,0,0,0-4.07,1.73l-13.1,13.1C12.62,17.32,8.11,24.34,10.88,27.12ZM29.26,4.8a3,3,0,0,1,2.07-.89,2.67,2.67,0,0,1,2,.79,2.72,2.72,0,0,1,.79,2,3,3,0,0,1-.89,2.06l-13.1,13.1c-1.69,1.69-6.2,3.71-7.17,3.22-.49-1,1.53-5.48,3.22-7.17Z" />
    </g>
  </g>
</svg>