<svg xmlns="http://www.w3.org/2000/svg" viewBox="0 0 36 36">
  <title>编辑资源 26</title>
  <g id="图层_2" data-name="图层 2">
    <g id="图层_1-2" data-name="图层 1">
      <path d="M26,1.3h0a6.73,6.73,0,0,0-4-1.3,7,7,0,0,0-5.8,3.13l-15,20.42A6.47,6.47,0,0,0,0,28l.62,6.15a2,2,0,0,0,2,1.85,2.05,2.05,0,0,0,.49-.06l6.06-1.58a6,6,0,0,0,3.36-2.29L27.71,11.42A7.41,7.41,0,0,0,26,1.3Zm-.74,8.3L10.15,30.19a3.12,3.12,0,0,1-1.71,1.17L3.51,32.64,3,27.69a3.25,3.25,0,0,1,.62-2.26L18.64,5l.07-.1A4,4,0,0,1,22.06,3.1a3.86,3.86,0,0,1,2.26.73A4.08,4.08,0,0,1,25.94,6.5,4.33,4.33,0,0,1,25.29,9.6Z" />
      <path d="M34.5,33h-17a1.5,1.5,0,0,0,0,3h17a1.5,1.5,0,0,0,0-3Z" />
    </g>
  </g>
</svg>