<svg xmlns="http://www.w3.org/2000/svg" viewBox="0 0 88 88">
  <defs>
    <style>.cls-edit-ring-circle,.cls-edit-ring-content{fill:#4d9bff;}.cls-edit-ring-circle{fill-rule:evenodd;}.cls-edit-ring-inner{fill:#fff;}</style>
  </defs>
  <g>
    <g>
      <path class="cls-edit-ring-circle" d="M44,0A44,44,0,1,1,0,44,44,44,0,0,1,44,0Z" />
      <path class="cls-edit-ring-inner" d="M65.21,32.83a7.38,7.38,0,0,1-.67.81L48,50.18c-1.45,1.45-7.08,5.19-11.18,5.19a4.17,4.17,0,0,1-3.07-1.12C30.24,50.74,36,41.88,37.83,40L54.36,23.47a7.39,7.39,0,0,1,.82-.68A23.86,23.86,0,0,0,44,20h0A24.07,24.07,0,0,0,20,44h0A24.07,24.07,0,0,0,44,68h0A24.07,24.07,0,0,0,68,44h0A23.79,23.79,0,0,0,65.21,32.83Z" />
      <path class="cls-edit-ring-content" d="M62.93,29.33a24.48,24.48,0,0,0-4.25-4.26,24.73,24.73,0,0,0-3.5-2.28,7.39,7.39,0,0,0-.82.68L37.83,40C36,41.88,30.24,50.74,33.75,54.25a4.17,4.17,0,0,0,3.07,1.12c4.1,0,9.73-3.74,11.18-5.19L64.54,33.64a7.38,7.38,0,0,0,.67-.81A24.73,24.73,0,0,0,62.93,29.33Z" />
    </g>
  </g>
</svg>