<svg xmlns="http://www.w3.org/2000/svg" viewBox="0 0 42 42">
  <defs>
    <style>.cls-edit-squre{fill:none;}</style>
  </defs>
  <g>
    <g>
      <path d="M37,20.5V28a9,9,0,0,1-9,9H8a3,3,0,0,1-3-3V8A3,3,0,0,1,8,5H20.5A1.5,1.5,0,0,0,22,3.5h0A1.5,1.5,0,0,0,20.5,2H8A6,6,0,0,0,2,8V34a6,6,0,0,0,6,6H28A12,12,0,0,0,40,28V20.5A1.5,1.5,0,0,0,38.5,19h0A1.5,1.5,0,0,0,37,20.5Z" />
      <path d="M13.32,32a3.33,3.33,0,0,1-2.44-.88h0c-2.77-2.78,1.74-9.8,3.23-11.28l16.1-16.1A5.85,5.85,0,0,1,34.28,2a5.39,5.39,0,0,1,4.08,1.63A5.63,5.63,0,0,1,40,7.72a5.89,5.89,0,0,1-1.74,4.08L22.17,27.89C21,29,16.56,32,13.32,32Zm-.38-2.94c1,.49,5.48-1.53,7.17-3.22l16.1-16.1a3,3,0,0,0,.89-2.06,2.72,2.72,0,0,0-.79-2,2.67,2.67,0,0,0-2-.79,3,3,0,0,0-2.07.89L16.16,21.89C14.47,23.58,12.45,28.09,12.94,29.06Z" />
      <rect class="cls-edit-squre" width="42" height="42" />
    </g>
  </g>
</svg>