<svg xmlns="http://www.w3.org/2000/svg" xmlns:xlink="http://www.w3.org/1999/xlink" viewBox="0 0 88 88">
  <defs>
    <style>.cls-health-check-circel{fill:url(#gradient_24);}.cls-health-check-content{fill:url(#gradient_30);}</style>
    <linearGradient id="gradient_24" x1="-1523.44" y1="266.17" x2="-1523.44" y2="267.17" gradientTransform="matrix(88, 0, 0, -88, 134106.56, 23510.58)" gradientUnits="userSpaceOnUse">
      <stop offset="0" stop-color="#4d9bff" />
      <stop offset="1" stop-color="#94c3ff" />
    </linearGradient>
    <linearGradient id="gradient_30" x1="44" y1="70" x2="44" y2="18" gradientUnits="userSpaceOnUse">
      <stop offset="0" stop-color="#d4e9ff" />
      <stop offset="1" stop-color="#fff" />
    </linearGradient>
  </defs>
  <g>
    <g>
      <path class="cls-health-check-circel" d="M44,0A44,44,0,1,1,0,44,44,44,0,0,1,44,0Z" />
      <path class="cls-health-check-content" d="M65.76,66.61,58,58a11.15,11.15,0,0,0-8.24-18.35h-.6a11.16,11.16,0,1,0-.57,22.31h.59a11.08,11.08,0,0,0,6-1.55L63,69.1a1.84,1.84,0,0,0,2.62.14h0A1.86,1.86,0,0,0,65.76,66.61ZM49.18,57.29h-.36a6.51,6.51,0,0,1,.33-13h.37a6.51,6.51,0,1,1-.34,13ZM61.75,24.76c-9.56-.71-14.68-4.21-16.87-6.23a2,2,0,0,0-2.74,0c-2.27,2-7.44,5.53-16.87,6.25a3.83,3.83,0,0,0-3.51,3.82v22c0,5.77,12.76,14.69,18.74,18.51a5.69,5.69,0,0,0,6,0c1.41-.82,2.9-1.73,4.42-2.69a.73.73,0,0,0,.21-1h0a.72.72,0,0,0-.69-.31,15.78,15.78,0,0,1-2.48.1A14.88,14.88,0,1,1,63.72,50.36a.78.78,0,0,0,.78.78h0a.79.79,0,0,0,.79-.79V28.61a3.84,3.84,0,0,0-3.54-3.85Z" />
    </g>
  </g>
</svg>