<svg xmlns="http://www.w3.org/2000/svg" viewBox="0 0 40 42">
  <g>
    <g>
      <defs>
        <linearGradient id="gradient-home" gradientTransform="rotate(90)">
          <stop offset="0%" stop-color="#71E1C5" />
          <stop offset="100%" stop-color="#12CD9F" />
        </linearGradient>
      </defs>
      <path fill="url('#gradient-home')" d="M38.65,15.15l-.32-.26L22.53.91a4,4,0,0,0-5.06,0l-15.8,14-.32.26A3.67,3.67,0,0,0,0,18V38a4,4,0,0,0,4,4H36a4,4,0,0,0,4-4V18A3.67,3.67,0,0,0,38.65,15.15ZM21.5,31.5a1.5,1.5,0,0,1-3,0v-9a1.5,1.5,0,0,1,3,0Z" />
    </g>
  </g>
</svg>