<svg xmlns="http://www.w3.org/2000/svg" viewBox="0 0 20 20">
  <defs>
    <style>.cls-hospital{fill:#444;}.cls-hospital-rect{fill:none;}</style>
  </defs>
  <g>
    <g>
      <path class="cls-hospital" d="M17.3,8H13.9V3.3a2,2,0,0,0-2-2H3.5a2,2,0,0,0-2,2V17.4a1.32,1.32,0,0,0,1.3,1.3H17.2a1.35,1.35,0,0,0,1.4-1.3V9.3A1.32,1.32,0,0,0,17.3,8Zm-4.8,9.4H2.8V3.3a.68.68,0,0,1,.7-.7h8.3a.68.68,0,0,1,.7.7Zm4.8,0H13.9V9.3h3.4Z" />
      <path class="cls-hospital" d="M9.6,6.9H8.4V5.7A.7.7,0,0,0,7,5.7V6.9H5.7a.68.68,0,0,0-.7.7.85.85,0,0,0,.7.7H7V9.6a.7.7,0,0,0,1.4,0V8.3H9.6a.7.7,0,0,0,0-1.4Z" />
      <rect class="cls-hospital-rect" width="20" height="20" />
    </g>
  </g>
</svg>