<svg xmlns="http://www.w3.org/2000/svg" viewBox="0 0 52 40">
  <g>
    <g>
      <path d="M46,0H6A6,6,0,0,0,0,6V34a6,6,0,0,0,6,6H46a6,6,0,0,0,6-6V6A6,6,0,0,0,46,0ZM8.5,26h6a1.5,1.5,0,0,1,0,3h-6a1.5,1.5,0,0,1,0-3ZM7,19.5A1.5,1.5,0,0,1,8.5,18h11a1.5,1.5,0,0,1,0,3H8.5A1.5,1.5,0,0,1,7,19.5Zm0-7A1.5,1.5,0,0,1,8.5,11h15a1.5,1.5,0,0,1,0,3H8.5A1.5,1.5,0,0,1,7,12.5ZM37.54,20h-.08A4.48,4.48,0,0,1,33,15.54v-.08A4.48,4.48,0,0,1,37.46,11h.08A4.48,4.48,0,0,1,42,15.46v.08A4.48,4.48,0,0,1,37.54,20Zm4,3a3.5,3.5,0,0,1,0,7h-8a3.5,3.5,0,0,1,0-7Z" />
    </g>
  </g>
</svg>