<svg xmlns="http://www.w3.org/2000/svg" viewBox="0 0 42 42">
  <defs>
    <style>.cls-id-card-rect{fill:none;}</style>
  </defs>
  <g>
    <g>
      <path d="M36.38,5H5.62A4.73,4.73,0,0,0,1,9.8V32.2A4.73,4.73,0,0,0,5.62,37H36.38A4.73,4.73,0,0,0,41,32.2V9.8A4.73,4.73,0,0,0,36.38,5ZM38,32.2A1.74,1.74,0,0,1,36.38,34H5.62A1.74,1.74,0,0,1,4,32.2V9.8A1.74,1.74,0,0,1,5.62,8H36.38A1.74,1.74,0,0,1,38,9.8Z" />
      <rect x="26" y="14" width="6" height="6" rx="2.98" />
      <path d="M18.5,15H8.5a1.5,1.5,0,0,0,0,3h10a1.5,1.5,0,0,0,0-3Z" />
      <path d="M13.5,24h-5a1.5,1.5,0,0,0,0,3h5a1.5,1.5,0,0,0,0-3Z" />
      <path d="M32,22H26a3,3,0,0,0,0,6h6a3,3,0,0,0,0-6Z" />
      <rect class="cls-id-card-rect" width="42" height="42" />
    </g>
  </g>
</svg>