<svg xmlns="http://www.w3.org/2000/svg" viewBox="0 0 42 42">
  <defs>
    <style>.cls-list-plus-rect{fill:none;}</style>
  </defs>
  <g>
    <g>
      <rect class="cls-list-plus-rect" width="42" height="42" />
      <path d="M32.44,1H9.56A5.56,5.56,0,0,0,4,6.56V35.44A5.56,5.56,0,0,0,9.56,41H32.44A5.56,5.56,0,0,0,38,35.44V6.56A5.56,5.56,0,0,0,32.44,1ZM35,35.44A2.56,2.56,0,0,1,32.44,38H9.56A2.56,2.56,0,0,1,7,35.44V6.56A2.56,2.56,0,0,1,9.56,4H32.44A2.56,2.56,0,0,1,35,6.56Z" />
      <path d="M11.5,13h16a1.5,1.5,0,0,0,0-3h-16a1.5,1.5,0,0,0,0,3Z" />
      <path d="M11.5,22h10a1.5,1.5,0,0,0,0-3h-10a1.5,1.5,0,0,0,0,3Z" />
      <path d="M16.5,28h-5a1.5,1.5,0,0,0,0,3h5a1.5,1.5,0,0,0,0-3Z" />
      <path d="M30.5,28H28V25.5a1.5,1.5,0,0,0-3,0V28H22.5a1.5,1.5,0,0,0,0,3H25v2.5a1.5,1.5,0,0,0,3,0V31h2.5a1.5,1.5,0,0,0,0-3Z" />
    </g>
  </g>
</svg>