<svg xmlns="http://www.w3.org/2000/svg" xmlns:xlink="http://www.w3.org/1999/xlink" viewBox="0 0 88 88">
  <defs>
    <style>.cls-list-plus-green-circle{fill:url(#gradient_29);}.cls-list-plus-green{fill:url(#gradient_47);}</style>
    <linearGradient id="gradient_29" x1="44" x2="44" y2="88" gradientUnits="userSpaceOnUse">
      <stop offset="0" stop-color="#71e1c5" />
      <stop offset="1" stop-color="#15cea0" />
      <stop offset="1" stop-color="#12cd9f" />
    </linearGradient>
    <linearGradient id="gradient_47" x1="44" y1="70" x2="44" y2="18" gradientUnits="userSpaceOnUse">
      <stop offset="0" stop-color="#9dedd6" />
      <stop offset="0" stop-color="#acefda" />
      <stop offset="1" stop-color="#fff" stop-opacity="0.95" />
    </linearGradient>
  </defs>
  <g>
    <g>
      <circle class="cls-list-plus-green-circle" cx="44" cy="44" r="44" />
      <path class="cls-list-plus-green" d="M60,18H28a6.45,6.45,0,0,0-6,6V64a6.45,6.45,0,0,0,6,6H60a6.45,6.45,0,0,0,6-6V24A6.45,6.45,0,0,0,60,18ZM31,27H53a2,2,0,0,1,0,4H31a2,2,0,0,1,0-4Zm8,24H31a2,2,0,0,1,0-4h8a2,2,0,0,1,0,4Zm4-10H31a2,2,0,0,1,0-4H43a2,2,0,0,1,0,4ZM57,58H54v3a2,2,0,0,1-4,0V58H47a2,2,0,0,1,0-4h3V51a2,2,0,0,1,4,0v3h3a2,2,0,0,1,0,4Z" />
    </g>
  </g>
</svg>