<svg xmlns="http://www.w3.org/2000/svg" xmlns:xlink="http://www.w3.org/1999/xlink" viewBox="0 0 68 68">
  <defs>
    <style>.cls-location-circle-red{fill:url(#gradient_41);}.cls-location-red{fill:url(#gradient_55);}</style>
    <linearGradient id="gradient_41" x1="187.61" y1="-384.54" x2="187.61" y2="-383.13" gradientTransform="matrix(48, 0, 0, -48, -8971.08, -18390)" gradientUnits="userSpaceOnUse">
      <stop offset="0" stop-color="#ff6158" />
      <stop offset="1" stop-color="#ffa09b" />
    </linearGradient>
    <linearGradient id="gradient_55" x1="34" y1="54" x2="34" y2="14" gradientUnits="userSpaceOnUse">
      <stop offset="0" stop-color="#ffe9e9" />
      <stop offset="1" stop-color="#fff" />
    </linearGradient>
  </defs>
  <g>
    <g>
      <path class="cls-location-circle-red" d="M34,0A34,34,0,1,1,0,34,34,34,0,0,1,34,0Z" />
      <path class="cls-location-red" d="M34.81,14,34,14A16,16,0,0,0,18,30a15.82,15.82,0,0,0,2.73,8.9,16,16,0,0,0,1,1.32L33,53.51a1.35,1.35,0,0,0,2.08,0L46.25,40.22c.36-.43.71-.87,1-1.33A15.89,15.89,0,0,0,50,29.76,16.11,16.11,0,0,0,34.81,14ZM40.4,29.2A6.4,6.4,0,1,1,34,22.8,6.41,6.41,0,0,1,40.4,29.2Z" />
    </g>
  </g>
</svg>