<svg xmlns="http://www.w3.org/2000/svg" viewBox="0 0 42 42">
  <defs>
    <style>.cls-location-rect{fill:none;}</style>
  </defs>
  <g>
    <g>
      <path d="M21,12.15a5.25,5.25,0,1,0,5.25,5.25A5.26,5.26,0,0,0,21,12.15Zm0,8.25a3,3,0,1,1,3-3A3,3,0,0,1,21,20.4Z" />
      <path d="M21.61,6H21a12,12,0,0,0-9.95,18.67,11.83,11.83,0,0,0,.76,1l8.41,10a1,1,0,0,0,1.56,0l8.4-10a10.73,10.73,0,0,0,.78-1,12,12,0,0,0,2-6.84A12.09,12.09,0,0,0,21.61,6Zm7.48,17.4c-.17.24-.37.5-.63.8L21,33.07l-7.47-8.86c-.25-.3-.45-.55-.62-.8A9.64,9.64,0,0,1,11.25,18,9.75,9.75,0,0,1,21,8.25h.5a9.88,9.88,0,0,1,9.25,9.59A9.68,9.68,0,0,1,29.09,23.41Z" />
      <rect class="cls-location-rect" width="42" height="42" />
    </g>
  </g>
</svg>