<svg xmlns="http://www.w3.org/2000/svg" viewBox="0 0 429.61 268.62" fill="#1dd1a9">
  <g>
    <g>
      <path class="cls-logo-rotated" d="M415.89,103.77a46.82,46.82,0,1,0,0,66.22A46.82,46.82,0,0,0,415.89,103.77Z" />
      <path class="cls-logo-rotated" d="M345.43,213.37c0-.39-.09-.78-.14-1.17s-.08-.71-.14-1.06a.88.88,0,0,0,0-.16c0-.22-.08-.44-.11-.66-.08-.46-.16-.91-.25-1.37l-.15-.71c-.11-.48-.21-1-.33-1.42-.06-.24-.13-.47-.19-.7-.13-.46-.26-.92-.4-1.38-.07-.24-.15-.47-.23-.71-.14-.44-.29-.89-.45-1.33l-.27-.72c-.16-.42-.33-.85-.51-1.27-.1-.24-.2-.48-.31-.72-.18-.41-.37-.82-.56-1.23-.12-.24-.24-.48-.35-.72l-.62-1.18c-.13-.24-.26-.48-.4-.72l-.65-1.12c-.15-.25-.3-.49-.46-.73s-.45-.71-.69-1.06l-.51-.73c-.24-.34-.47-.68-.72-1l-.57-.74c-.25-.31-.5-.63-.76-.94l-.62-.72c-.26-.31-.52-.61-.8-.91s-.4-.43-.6-.64-.49-.52-.74-.77l-.18-.18-.35-.32A43.25,43.25,0,0,0,314.92,176l-.11,0c-.54-.16-1.07-.31-1.61-.45l-.51-.14-1.26-.28c-.29-.07-.58-.14-.87-.19s-.63-.12-.94-.17l-1.19-.2-.69-.09-1.43-.17-.5,0c-.54,0-1.07-.09-1.61-.11l-.49,0c-.54,0-1.07,0-1.61,0-.71,0-1.42,0-2.14,0h-.06c-.71,0-1.43.09-2.14.17h-.1c-.7.07-1.4.16-2.09.26h-.05a109.1,109.1,0,0,1-124.62-123l.21-1.39A43.54,43.54,0,0,0,97.3,12.75L0,110.06v99.05a43.45,43.45,0,0,0,36.44-12.37L96,137.18A194.84,194.84,0,0,0,208.45,249.63l-19,19H312.58l19.94-19.94a43.72,43.72,0,0,0,5.93-7.17,1.4,1.4,0,0,1,.1-.16c.35-.53.69-1.07,1-1.62l.33-.58c.24-.42.48-.84.71-1.27.11-.21.2-.41.31-.62.22-.43.44-.86.64-1.3.08-.16.15-.33.22-.49.22-.5.44-1,.65-1.49l.1-.27a43.29,43.29,0,0,0,2.92-20.25A.28.28,0,0,1,345.43,213.37Z" />
    </g>
  </g>
</svg>