<svg xmlns="http://www.w3.org/2000/svg" xmlns:xlink="http://www.w3.org/1999/xlink" viewBox="0 0 200.83 220.42">
  <defs>
    <style>.cls-logo-1{fill:none;}.cls-logo-2{isolation:isolate;}.cls-logo-3{fill:#5cadd4;}.cls-logo-4{fill:#4bb758;}.cls-logo-5{mix-blend-mode:multiply;}.cls-logo-6{clip-path:url(#clip-path);}.cls-logo-7{clip-path:url(#clip-path-2);}.cls-logo-8{fill:url(#gradient_3);}</style>
    <clipPath id="clip-path">
      <rect class="cls-logo-1" x="2.96" y="68.53" width="194.49" height="151.89" />
    </clipPath>
    <clipPath id="clip-path-2">
      <path class="cls-logo-1" d="M28.38,220.42A25.41,25.41,0,0,1,3,195V93.94a25.41,25.41,0,0,1,45.91-15l.49.66a63.69,63.69,0,0,0,102.2-.69,25.42,25.42,0,1,1,41,30.1,115,115,0,0,1-92.31,46.75,114.39,114.39,0,0,1-46.42-9.9V195a25.41,25.41,0,0,1-25.41,25.41" />
    </clipPath>
    <linearGradient id="gradient_3" x1="1209.23" y1="1304.99" x2="1212.9" y2="1304.99" gradientTransform="matrix(53.06, 0, 0, -53.06, -64164.63, 69391.43)" gradientUnits="userSpaceOnUse">
      <stop offset="0" stop-color="#4bb758" />
      <stop offset="0.16" stop-color="#4eb56e" />
      <stop offset="0.73" stop-color="#57afb7" />
      <stop offset="1" stop-color="#5aacd4" />
    </linearGradient>
  </defs>
  <title>壹树医疗</title>
  <g class="cls-logo-2">
    <g>
      <g>
        <path class="cls-logo-3" d="M145.74,27.34a27.34,27.34,0,1,1,27.34,27.33,27.34,27.34,0,0,1-27.34-27.33" />
        <path class="cls-logo-4" d="M0,27.34A27.34,27.34,0,1,1,27.33,54.67,27.34,27.34,0,0,1,0,27.34" />
        <path class="cls-logo-3" d="M172,220.42A25.41,25.41,0,0,1,146.62,195V93.94a25.41,25.41,0,0,1,50.82,0V195A25.41,25.41,0,0,1,172,220.42" />
        <g class="cls-logo-5">
          <g class="cls-logo-6">
            <g class="cls-logo-7">
              <rect class="cls-logo-8" x="2.96" y="65.16" width="197.87" height="155.26" />
            </g>
          </g>
        </g>
      </g>
    </g>
  </g>
</svg>