<svg xmlns="http://www.w3.org/2000/svg" xmlns:xlink="http://www.w3.org/1999/xlink" viewBox="0 0 135 51">
  <defs>
    <style>.cls-medtree-1{isolation:isolate;}.cls-medtree-2{fill:#86868a;}.cls-medtree-3{fill:#5cadd4;}.cls-medtree-4{fill:#4bb758;}.cls-medtree-5{mix-blend-mode:multiply;}.cls-medtree-6{fill:url(#gradient_3);}</style>
    <linearGradient id="gradient_3" x1="0.69" y1="33.43" x2="45.68" y2="33.43" gradientUnits="userSpaceOnUse">
      <stop offset="0" stop-color="#4bb758" />
      <stop offset="0.16" stop-color="#4eb56e" />
      <stop offset="0.73" stop-color="#57afb7" />
      <stop offset="1" stop-color="#5aacd4" />
    </linearGradient>
  </defs>
  <title>壹树医疗</title>
  <g class="cls-medtree-1">
    <g>
      <g>
        <polygon class="cls-medtree-2" points="77.45 6.7 64.81 6.7 64.81 9.97 93.94 9.97 93.94 6.7 81.12 6.7 81.12 4.88 95.47 4.88 95.47 1.61 81.12 1.61 81.12 0.31 77.45 0.31 77.45 1.61 63.36 1.61 63.36 4.88 77.45 4.88 77.45 6.7" />
        <path class="cls-medtree-2" d="M87.9,29.94h3a2.24,2.24,0,0,0,2.24-2.24V22H65.71v4.74a3.22,3.22,0,0,0,3.11,3.22h2l1.17,2H62.72V35h33.4v-3.1h-9.4Zm1.54-2.88H68.94V24.85h20.5ZM74.68,29.94H84l-1.17,2h-7Z" />
        <path class="cls-medtree-2" d="M135,6.7h-3.09V.31H128V6.7h-4.88V10H128V23.61a68.47,68.47,0,0,1-3-9.82L121.13,15a37.58,37.58,0,0,0,6.2,10.06l.69-.69v7.22h-4.15V34.9h3.18A4.87,4.87,0,0,0,131.91,30V10H135Z" />
        <path class="cls-medtree-2" d="M91.8,11.79H67a4.43,4.43,0,0,0-4.43,4.43v3.54h3.67v-4.7H92.56v4.7h3.67V16.22a4.43,4.43,0,0,0-4.43-4.43" />
        <rect class="cls-medtree-2" x="69.13" y="17.08" width="20.12" height="2.88" />
        <path class="cls-medtree-2" d="M110.42,21.45l1-.95a28,28,0,0,1-4.69-6.38V9.84h3.08V6.57h-3.08V.31H102.8V6.57H99.71V9.84h3.09V10c0,.91-.55,6.05-5.85,13.92l1.1,1.18a23,23,0,0,0,4.75-4.85V35h1.52a2.37,2.37,0,0,0,2.37-2.37V19.46a16.5,16.5,0,0,0,3.73,2" />
        <path class="cls-medtree-2" d="M121.56,2.7H110.42V6.53h6.77a49.38,49.38,0,0,1-1.27,8.73c-1-2-1.86-4-2.59-5.53L110,11.82s1.76,4.1,4.31,8.76A42.78,42.78,0,0,1,107.69,33l1,1.32a40.58,40.58,0,0,0,7.8-10,40.38,40.38,0,0,0,5,6.69l1.35-1.35s-2.08-4.29-4.45-9.23A45.9,45.9,0,0,0,121.56,2.7" />
        <path class="cls-medtree-2" d="M74.83,39.56h0a5,5,0,0,0-3.36,1.66,3.15,3.15,0,0,0-3-1.69h0a4.57,4.57,0,0,0-3,1.26v-1H63.53l0,10.42h1.94l0-7.48a3.8,3.8,0,0,1,2.6-1.47h0a1.93,1.93,0,0,1,1.87,2.2l0,6.77h2l0-7.48A4,4,0,0,1,74.4,41.3h0a1.86,1.86,0,0,1,1.41.57,2.26,2.26,0,0,1,.53,1.57l0,6.82h2l0-7a3.85,3.85,0,0,0-.91-2.73,3.42,3.42,0,0,0-2.57-1" />
        <path class="cls-medtree-2" d="M98.45,40.88a4.55,4.55,0,0,0-3.11-1.24h0c-2.78,0-4.52,2.1-4.54,5.48A6.49,6.49,0,0,0,91.89,49a4.14,4.14,0,0,0,3.45,1.66h0a5,5,0,0,0,3.07-1.13v.79h2l.06-13.6h-2Zm0,6.76a4.27,4.27,0,0,1-2.89,1.25,2.42,2.42,0,0,1-2.11-1.12,4.88,4.88,0,0,1-.68-2.64c0-1.79.75-3.69,2.81-3.69h0a3.93,3.93,0,0,1,2.88,1.44Z" />
        <path class="cls-medtree-2" d="M84.85,48.91h0a2.76,2.76,0,0,1-2-.8A3.46,3.46,0,0,1,82,45.79l7.56,0v-1a5.77,5.77,0,0,0-1.13-3.64,4.4,4.4,0,0,0-3.57-1.62h0a4.4,4.4,0,0,0-3.6,1.71A6.26,6.26,0,0,0,80,45.11c0,3.4,1.83,5.52,4.83,5.54h0a4.7,4.7,0,0,0,4.58-2.92l.13-.32h-2a3.09,3.09,0,0,1-2.73,1.51m0-7.57h0a2.82,2.82,0,0,1,2.72,2.8l-5.55,0a2.93,2.93,0,0,1,2.82-2.78" />
        <path class="cls-medtree-2" d="M119.63,48.91h0a2.76,2.76,0,0,1-2-.8,3.46,3.46,0,0,1-.87-2.32l7.56,0v-1a5.77,5.77,0,0,0-1.13-3.64,4.4,4.4,0,0,0-3.57-1.62h0a4.38,4.38,0,0,0-3.6,1.71,6.26,6.26,0,0,0-1.2,3.8c0,3.4,1.84,5.52,4.84,5.54h0a4.67,4.67,0,0,0,4.57-2.92l.14-.32h-2a3.09,3.09,0,0,1-2.73,1.51m-.06-7.57h0a2.82,2.82,0,0,1,2.72,2.8l-5.56,0a2.94,2.94,0,0,1,2.82-2.78" />
        <path class="cls-medtree-2" d="M130.28,48.91h0a2.78,2.78,0,0,1-2-.8,3.45,3.45,0,0,1-.86-2.32l7.56,0v-1a5.83,5.83,0,0,0-1.13-3.64,4.41,4.41,0,0,0-3.57-1.62h0a4.38,4.38,0,0,0-3.6,1.71,6.26,6.26,0,0,0-1.2,3.8c0,3.4,1.84,5.52,4.83,5.54h0a4.69,4.69,0,0,0,4.58-2.92l.14-.32h-2a3.1,3.1,0,0,1-2.74,1.51m-.05-7.57h0a2.82,2.82,0,0,1,2.72,2.8l-5.55,0a2.93,2.93,0,0,1,2.82-2.78" />
        <path class="cls-medtree-2" d="M107.65,50.41V48.72H105l0-6.88h2.62v-1.7H105V37.49h-1.92l0,10.45a2.47,2.47,0,0,0,2.47,2.48Z" />
        <path class="cls-medtree-2" d="M111.58,41.7h2.89V40h-2.35a2.47,2.47,0,0,0-2.47,2.48l0,7.92h1.92Z" />
        <circle class="cls-medtree-3" cx="40.04" cy="6.32" r="6.32" />
        <circle class="cls-medtree-4" cx="6.32" cy="6.32" r="6.32" />
        <path class="cls-medtree-3" d="M39.8,51a5.88,5.88,0,0,1-5.88-5.88V21.74a5.88,5.88,0,0,1,11.76,0V45.12A5.88,5.88,0,0,1,39.8,51Z" />
        <g class="cls-medtree-5">
          <path class="cls-medtree-6" d="M6.56,51A5.87,5.87,0,0,1,.69,45.12V21.74a5.88,5.88,0,0,1,10.62-3.48l.11.15a14.73,14.73,0,0,0,23.64-.16,5.88,5.88,0,0,1,9.48,7A26.61,26.61,0,0,1,23.18,36a26.45,26.45,0,0,1-10.74-2.29V45.12A5.88,5.88,0,0,1,6.56,51Z" />
        </g>
      </g>
    </g>
  </g>
</svg>