<?xml version="1.0" encoding="UTF-8"?>
<svg width="48px" height="48px" viewBox="0 0 48 48" version="1.1" xmlns="http://www.w3.org/2000/svg" xmlns:xlink="http://www.w3.org/1999/xlink">
    <!-- Generator: Sketch 64 (93537) - https://sketch.com -->
    <title>菜单备份</title>
    <desc>Created with Sketch.</desc>
    <g id="页面-1" stroke="none" stroke-width="1" fill="none" fill-rule="evenodd">
        <g id="我的备份-3" transform="translate(-60.000000, -812.000000)">
            <g id="菜单备份" transform="translate(30.000000, 664.000000)">
                <g id="药盒_线" transform="translate(30.000000, 148.000000)">
                    <polygon id="路径" points="0 48 48 48 48 0 0 0"></polygon>
                    <g id="编组" transform="translate(6.000000, 6.000000)" fill="#040000">
                        <path d="M31.7564184,15.3402974 L25.3008921,21.7987447 L15.2018395,11.7016395 L21.6593132,5.24319211 C24.4674184,2.47500789 28.9882342,2.50616579 31.7564184,5.31427105 C34.4973395,8.09413947 34.4973395,12.5604289 31.7564184,15.3402974 L31.7564184,15.3402974 Z M15.3401026,31.7566132 C12.5319974,34.5247974 8.01215526,34.4936395 5.24397105,31.6855342 C2.50207632,28.9066395 2.50207632,24.44035 5.24397105,21.6595079 L13.1356816,13.7677974 L23.2327868,23.8639289 L15.3401026,31.7566132 Z M33.8225763,3.17800789 L33.8225763,3.17800789 C29.8869447,-0.735228947 23.5297605,-0.735228947 19.5941289,3.17800789 L3.17781316,19.5952974 C-0.73445,23.5085342 -0.73445,29.9105079 3.17781316,33.8227711 C7.11344474,37.7360079 13.4696553,37.7360079 17.4052868,33.8227711 L33.8225763,17.4045079 C37.7348395,13.4932184 37.7348395,7.08929737 33.8225763,3.17800789 L33.8225763,3.17800789 Z" id="Fill-2"></path>
                        <path d="M10.3757737,20.2799921 C11.5860632,20.2799921 12.5665632,21.2614658 12.5665632,22.4707816 C12.5665632,23.6800974 11.5860632,24.6615711 10.3757737,24.6615711 C9.16548421,24.6615711 8.18498421,23.6800974 8.18498421,22.4707816 C8.18498421,21.2614658 9.16548421,20.2799921 10.3757737,20.2799921" id="Fill-4"></path>
                        <path d="M9.64551053,26.2134289 C10.8558,26.2134289 11.8363,27.1949026 11.8363,28.4042184 C11.8363,29.6135342 10.8558,30.5950079 9.64551053,30.5950079 C8.43522105,30.5950079 7.45472105,29.6135342 7.45472105,28.4042184 C7.45472105,27.1949026 8.43522105,26.2134289 9.64551053,26.2134289" id="Fill-6"></path>
                        <path d="M16.3092105,22.10565 C17.5195,22.10565 18.5,23.0871237 18.5,24.2964395 C18.5,25.5057553 17.5195,26.4872289 16.3092105,26.4872289 C15.0989211,26.4872289 14.1184211,25.5057553 14.1184211,24.2964395 C14.1184211,23.0871237 15.0989211,22.10565 16.3092105,22.10565" id="Fill-8"></path>
                    </g>
                </g>
            </g>
        </g>
    </g>
</svg>