<?xml version="1.0" encoding="UTF-8"?>
<svg width="48px" height="48px" viewBox="0 0 48 48" version="1.1" xmlns="http://www.w3.org/2000/svg" xmlns:xlink="http://www.w3.org/1999/xlink">
    <!-- Generator: Sketch 64 (93537) - https://sketch.com -->
    <title>菜单备份</title>
    <desc>Created with Sketch.</desc>
    <g id="页面-1" stroke="none" stroke-width="1" fill="none" fill-rule="evenodd">
        <g id="我的备份-3" transform="translate(-60.000000, -920.000000)">
            <g id="菜单备份" transform="translate(30.000000, 664.000000)">
                <g id="定位_线" transform="translate(30.000000, 256.000000)">
                    <rect id="矩形备份" x="0" y="0" width="48" height="48"></rect>
                    <g id="编组-4" transform="translate(9.000000, 5.000000)" fill="#000000" fill-rule="nonzero">
                        <path d="M15,8 C11.1340068,8 8,11.1340068 8,15 C8,18.8659932 11.1340068,22 15,22 C18.8659932,22 22,18.8659932 22,15 C22,11.1340068 18.8659932,8 15,8 L15,8 Z M15,19 C12.790861,19 11,17.209139 11,15 C11,12.790861 12.790861,11 15,11 C17.209139,11 19,12.790861 19,15 C19,17.209139 17.209139,19 15,19 Z" id="形状"></path>
                        <path d="M15.7588025,0 L14.9994559,0 C6.71549355,0 7.60059903e-06,6.80540034 7.60059903e-06,15.2002871 C-0.00300347126,18.2150051 0.888705621,21.160968 2.55929479,23.6554468 C2.850213,24.0895734 3.16312035,24.5081418 3.49675983,24.9094705 L14.0619908,37.5352089 C14.3024206,37.8295959 14.6598668,38 15.0369545,38 C15.4140421,38 15.7714883,37.8295959 16.0119181,37.5352089 L26.4834026,24.9094705 C26.82089,24.5009628 27.1490028,24.0829549 27.4208676,23.6459466 C29.1361423,21.0903463 30.0360107,18.0627788 29.9988965,14.9722828 C29.840265,6.97818402 23.6360822,0.454998208 15.7588025,0 Z M25.1334529,22.0309161 C24.8998289,22.3903382 24.6463075,22.7360649 24.3741062,23.0664357 L14.9994559,34.2861476 L5.67167872,23.0664357 C5.35294061,22.6864285 5.09982505,22.3634224 4.88420809,22.0499165 C2.39413841,18.2639837 2.15981123,13.3972447 4.27434277,9.38362924 C6.3888743,5.37001376 10.5097603,2.85963281 14.9994559,2.85005383 L15.6181828,2.85005383 C21.9997736,3.25621076 27.019436,8.53271198 27.1865014,15.0102835 C27.2242831,17.5165644 26.5010312,19.9740572 25.1147036,22.0499165 L25.1334529,22.0309161 Z" id="形状"></path>
                    </g>
                </g>
            </g>
        </g>
    </g>
</svg>