<?xml version="1.0" encoding="UTF-8"?>
<svg width="48px" height="48px" viewBox="0 0 48 48" version="1.1" xmlns="http://www.w3.org/2000/svg" xmlns:xlink="http://www.w3.org/1999/xlink">
    <!-- Generator: Sketch 64 (93537) - https://sketch.com -->
    <title>菜单备份</title>
    <desc>Created with Sketch.</desc>
    <g id="页面-1" stroke="none" stroke-width="1" fill="none" fill-rule="evenodd">
        <g id="我的备份-3" transform="translate(-60.000000, -1028.000000)">
            <g id="菜单备份" transform="translate(30.000000, 664.000000)">
                <g id="收藏_线" transform="translate(30.000000, 364.000000)">
                    <rect id="矩形备份-2" x="0" y="0" width="48" height="48"></rect>
                    <path d="M24,9.19736841 C24.1448899,9.19056945 24.2783351,9.27582615 24.3330592,9.41015625 L27.959704,17.2000411 C28.350344,18.0405215 29.1347341,18.6305494 30.0505756,18.7728207 L38.4880756,20.068051 C38.6309271,20.0719313 38.756337,20.1641444 38.8026316,20.2993421 C38.8598473,20.4423537 38.8271858,20.6056614 38.7193668,20.7156661 L32.5115131,27.1178043 C31.8724767,27.7543984 31.5826505,28.6618304 31.734375,29.5509869 L33.1683799,38.3863076 C33.1946649,38.4969644 33.1672361,38.6135371 33.0943668,38.7008635 C33.0225593,38.7867621 32.919181,38.8401187 32.8075658,38.8488898 C32.7451541,38.8459187 32.6845836,38.8267912 32.6317845,38.7933799 L25.3507401,34.7411595 C24.5110036,34.273351 23.4889964,34.273351 22.6492599,34.7411595 L15.3682155,38.7471217 C15.3160111,38.7817943 15.2550835,38.8010346 15.1924342,38.8026316 C15.080819,38.7938605 14.9774407,38.7405039 14.9056332,38.6546053 C14.8327639,38.5672789 14.8053351,38.4507061 14.8316201,38.3400494 L16.265625,29.5509869 C16.4027917,28.6875496 16.1251142,27.8099516 15.5162418,27.1825658 L9.30838814,20.7341694 C9.18296174,20.627407 9.13847443,20.453165 9.19736841,20.2993421 C9.23366063,20.1657424 9.34685242,20.067156 9.48416939,20.0495477 L17.9216694,18.7543174 C18.8375109,18.6120462 19.6219011,18.0220182 20.0125411,17.1815378 L23.6391858,9.39165297 C23.7031267,9.25410158 23.8499667,9.17503392 24,9.19736841 M24,6.421875 C22.7687141,6.42386097 21.6532068,7.14821637 21.1504934,8.27220395 L17.5238487,16.0250822 L9.09560034,17.3203125 C7.93352771,17.5169036 6.9761348,18.3413431 6.60926216,19.4613723 C6.24238952,20.5814015 6.52647909,21.8124964 7.34703946,22.6585115 L13.5548931,29.0606497 L12.0931332,37.8774671 C11.9354483,38.7936963 12.1887014,39.7329094 12.7856312,40.4456613 C13.3825609,41.1584132 14.2627517,41.572566 15.1924342,41.578125 C15.7264424,41.5745465 16.2511228,41.4378117 16.7189556,41.1803043 L24,37.1188322 L31.2810444,41.1803043 C31.7488772,41.4378117 32.2735576,41.5745465 32.8075658,41.578125 C33.7372483,41.572566 34.6174391,41.1584132 35.2143688,40.4456613 C35.8112986,39.7329094 36.0645517,38.7936963 35.9068668,37.8774671 L34.4728619,29.0421464 L40.6529605,22.6585115 C41.474393,21.8086531 41.7554284,20.5726912 41.3822455,19.4511988 C41.0090626,18.3297064 40.0435106,17.5085535 38.8766447,17.3203125 L30.4761513,16.0250822 L26.8495066,8.27220395 C26.3467932,7.14821637 25.2312859,6.42386097 24,6.421875 Z" id="形状" fill="#000000" fill-rule="nonzero"></path>
                </g>
            </g>
        </g>
    </g>
</svg>