<?xml version="1.0" encoding="UTF-8"?>
<svg width="48px" height="48px" viewBox="0 0 48 48" version="1.1" xmlns="http://www.w3.org/2000/svg" xmlns:xlink="http://www.w3.org/1999/xlink">
    <!-- Generator: Sketch 64 (93537) - https://sketch.com -->
    <title>菜单备份</title>
    <desc>Created with Sketch.</desc>
    <g id="页面-1" stroke="none" stroke-width="1" fill="none" fill-rule="evenodd">
        <g id="我的备份-3" transform="translate(-60.000000, -1136.000000)">
            <g id="菜单备份" transform="translate(30.000000, 664.000000)">
                <g id="账户_线" transform="translate(30.000000, 472.000000)">
                    <rect id="矩形备份-3" x="0" y="0" width="48" height="48"></rect>
                    <path d="M39.6794475,10.0512821 L11.0566188,10.0512821 C8.64033061,10.1072155 6.72119542,12.1011222 6.75761132,14.5177833 L6.75761132,35.3614557 C6.72119542,37.7781168 8.64033061,39.7720235 11.0566188,39.827957 L39.6794475,39.827957 C42.0957357,39.7720235 44.0148709,37.7781168 43.978455,35.3614557 L43.978455,14.5177833 C44.0148709,12.1011222 42.0957357,10.1072155 39.6794475,10.0512821 Z M41.1868917,35.3614557 C41.2190825,36.2352082 40.5517517,36.9766868 39.6794475,37.0363937 L11.0566188,37.0363937 C10.1843146,36.9766868 9.51698376,36.2352082 9.54917459,35.3614557 L9.54917459,14.5177833 C9.51698376,13.6440309 10.1843146,12.9025522 11.0566188,12.8428453 L39.6794475,12.8428453 C40.5517517,12.9025522 41.2190825,13.6440309 41.1868917,14.5177833 L41.1868917,35.3614557 Z" id="形状" fill="#000000" fill-rule="nonzero"></path>
                    <path d="M32.7935915,18.4259719 L32.8308123,18.4259719 C34.6794475,18.4259719 35.6037652,19.3502895 35.6037652,21.1989247 L35.6037652,21.2361456 C35.6037652,23.0847808 34.6794475,24.0090984 32.8308123,24.0090984 L32.7935915,24.0090984 C30.9449562,24.0090984 30.0206386,23.0847808 30.0206386,21.2361456 L30.0206386,21.1989247 C30.0206386,19.3502895 30.9449562,18.4259719 32.7935915,18.4259719 Z" id="路径" fill="#000000" fill-rule="nonzero"></path>
                    <path d="M23.0417304,19.356493 L13.7365195,19.356493 C12.9656506,19.356493 12.3407379,19.9814057 12.3407379,20.7522746 C12.3407379,21.5231435 12.9656506,22.1480562 13.7365195,22.1480562 L23.0417304,22.1480562 C23.8125993,22.1480562 24.4375121,21.5231435 24.4375121,20.7522746 C24.4375121,19.9814057 23.8125993,19.356493 23.0417304,19.356493 Z M18.389125,27.7311828 L13.7365195,27.7311828 C12.9656506,27.7311828 12.3407379,28.3560955 12.3407379,29.1269644 C12.3407379,29.8978333 12.9656506,30.5227461 13.7365195,30.5227461 L18.389125,30.5227461 C19.1599939,30.5227461 19.7849066,29.8978333 19.7849066,29.1269644 C19.7849066,28.3560955 19.1599939,27.7311828 18.389125,27.7311828 L18.389125,27.7311828 Z M35.6037652,25.8701406 L30.0206386,25.8701406 C28.4789008,25.8701406 27.2290753,27.1199661 27.2290753,28.6617039 C27.2290753,30.2034417 28.4789008,31.4532672 30.0206386,31.4532672 L35.6037652,31.4532672 C37.145503,31.4532672 38.3953284,30.2034417 38.3953284,28.6617039 C38.3953284,27.1199661 37.145503,25.8701406 35.6037652,25.8701406 Z" id="形状" fill="#000000" fill-rule="nonzero"></path>
                </g>
            </g>
        </g>
    </g>
</svg>