<?xml version="1.0" encoding="UTF-8"?>
<svg width="48px" height="48px" viewBox="0 0 48 48" version="1.1" xmlns="http://www.w3.org/2000/svg" xmlns:xlink="http://www.w3.org/1999/xlink">
    <!-- Generator: Sketch 64 (93537) - https://sketch.com -->
    <title>菜单备份</title>
    <desc>Created with Sketch.</desc>
    <g id="页面-1" stroke="none" stroke-width="1" fill="none" fill-rule="evenodd">
        <g id="我的备份-3" transform="translate(-60.000000, -704.000000)">
            <g id="菜单备份" transform="translate(30.000000, 664.000000)">
                <g id="我的处方_线" transform="translate(30.000000, 40.000000)">
                    <rect id="矩形" x="0" y="0" width="48" height="48"></rect>
                    <path d="M34.8952381,4.95238094 L13.1047619,4.95238094 C11.7003774,4.95238094 10.3535129,5.5102705 9.36046314,6.50332028 C8.36741337,7.49637006 7.80952383,8.8432346 7.80952383,10.2476191 L7.80952383,37.7523809 C7.80952383,39.1567654 8.36741337,40.5036299 9.36046314,41.4966797 C10.3535129,42.4897295 11.7003774,43.0476191 13.1047619,43.0476191 L34.8952381,43.0476191 C36.2996226,43.0476191 37.6464871,42.4897295 38.6395369,41.4966797 C39.6325866,40.5036299 40.1904762,39.1567654 40.1904762,37.7523809 L40.1904762,10.2476191 C40.1904762,8.8432346 39.6325866,7.49637006 38.6395369,6.50332028 C37.6464871,5.5102705 36.2996226,4.95238094 34.8952381,4.95238094 Z M37.3333333,37.7523809 C37.3333333,39.0989038 36.2417609,40.1904762 34.8952381,40.1904762 L13.1047619,40.1904762 C11.7582391,40.1904762 10.6666667,39.0989038 10.6666667,37.7523809 L10.6666667,10.2476191 C10.6666667,8.90109625 11.7582391,7.80952383 13.1047619,7.80952383 L34.8952381,7.80952383 C36.2417609,7.80952383 37.3333333,8.90109625 37.3333333,10.2476191 L37.3333333,37.7523809 Z" id="形状" fill="#000000" fill-rule="nonzero"></path>
                    <path d="M14.9523809,16.3809524 L30.1904762,16.3809524 C30.9793621,16.3808219 31.6188114,15.7412669 31.6188114,14.952381 C31.6188114,14.163495 30.9793621,13.52394 30.1904762,13.5238095 L14.9523809,13.5238095 C14.163495,13.52394 13.5240457,14.163495 13.5240457,14.952381 C13.5240457,15.7412669 14.163495,16.3808219 14.9523809,16.3809524 L14.9523809,16.3809524 Z M14.9523809,24.9523809 L24.4761905,24.9523809 C25.2650764,24.9522505 25.9045257,24.3126955 25.9045257,23.5238095 C25.9045257,22.7349235 25.2650764,22.0953685 24.4761905,22.0952381 L14.9523809,22.0952381 C14.163495,22.0953685 13.5240457,22.7349235 13.5240457,23.5238095 C13.5240457,24.3126955 14.163495,24.9522505 14.9523809,24.9523809 Z M19.7142857,30.6666667 L14.9523809,30.6666667 C14.163495,30.6667971 13.5240457,31.3063521 13.5240457,32.0952381 C13.5240457,32.8841241 14.163495,33.5236791 14.9523809,33.5238095 L19.7142857,33.5238095 C20.5031717,33.5236791 21.1426209,32.8841241 21.1426209,32.0952381 C21.1426209,31.3063521 20.5031717,30.6667971 19.7142857,30.6666667 L19.7142857,30.6666667 Z M33.0476191,30.6666667 L30.6666667,30.6666667 L30.6666667,28.2857143 C30.6665362,27.4968283 30.0269812,26.8573791 29.2380953,26.8573791 C28.4492093,26.8573791 27.8096543,27.4968283 27.8095238,28.2857143 L27.8095238,30.6666667 L25.4285714,30.6666667 C24.6396855,30.6667971 24.0002362,31.3063521 24.0002362,32.0952381 C24.0002362,32.8841241 24.6396855,33.5236791 25.4285714,33.5238095 L27.8095238,33.5238095 L27.8095238,35.9047619 C27.8096543,36.6936479 28.4492093,37.3330971 29.2380953,37.3330971 C30.0269812,37.3330971 30.6665362,36.6936479 30.6666667,35.9047619 L30.6666667,33.5238095 L33.0476191,33.5238095 C33.836505,33.5236791 34.4759543,32.8841241 34.4759543,32.0952381 C34.4759543,31.3063521 33.836505,30.6667971 33.0476191,30.6666667 L33.0476191,30.6666667 Z" id="形状" fill="#000000" fill-rule="nonzero"></path>
                </g>
            </g>
        </g>
    </g>
</svg>