<svg xmlns="http://www.w3.org/2000/svg" viewBox="0 0 40 40">
  <defs>
    <style>.cls-notification-circle{fill:#ff6158;}.cls-notification-alarm{fill:#fff;}</style>
  </defs>
  <g>
    <g>
      <circle class="cls-notification-circle" cx="20" cy="20" r="20" />
      <path class="cls-notification-alarm" d="M22,30a3.48,3.48,0,0,1-.19.95,2.38,2.38,0,0,1-.57.86,1.62,1.62,0,0,1-.95.29,2.65,2.65,0,0,1-1.24-.67c-.86-.76-7.24-6.1-8.1-6.86H9.52a1.39,1.39,0,0,1-1-.38,1.21,1.21,0,0,1-.38-1v-6.1h0A1.38,1.38,0,0,1,8.57,16a1.53,1.53,0,0,1,1-.48h1.43c1.52-1.23,7.81-6.38,8.09-6.57l.48-.38a1.82,1.82,0,0,1,1.24-.47,1,1,0,0,1,.76.47,3,3,0,0,1,.38.95,3.74,3.74,0,0,1,.1,1.05L22,30Z" />
      <path class="cls-notification-alarm" d="M24.38,23.52a1.07,1.07,0,0,1-.28-.76.61.61,0,0,1,.09-.38h0a2.24,2.24,0,0,1,.29-.48,1.57,1.57,0,0,1,.38-.47l.28-.57a2,2,0,0,0,.1-.76,2,2,0,0,0-.1-.77l-.28-.57a.94.94,0,0,0-.38-.47c-.1-.19-.19-.29-.29-.48a.61.61,0,0,1-.09-.38,1.07,1.07,0,0,1,.28-.76,1.09,1.09,0,0,1,.76-.29,1.42,1.42,0,0,1,.57.19l.48.48a5.55,5.55,0,0,1,.86,1.43,5.37,5.37,0,0,1,.28,1.71,5,5,0,0,1-.28,1.71,5.55,5.55,0,0,1-.86,1.43c-.09.19-.29.29-.48.48a1.42,1.42,0,0,1-.57.19,5.59,5.59,0,0,1-.76-.48Z" />
      <path class="cls-notification-alarm" d="M31.62,22.29a8.4,8.4,0,0,1-.95,2.09,8.44,8.44,0,0,1-1.43,1.81,8.44,8.44,0,0,1-1.81,1.43.92.92,0,0,1-.67.19,1.07,1.07,0,0,1-.86-.38,1.22,1.22,0,0,1-.38-.86,1,1,0,0,1,.48-.86h.19a6.79,6.79,0,0,0,1.33-1,6.91,6.91,0,0,0,1.05-1.34,4.75,4.75,0,0,0,.67-1.62A5.37,5.37,0,0,0,29.52,20a5.87,5.87,0,0,0-.95-3.33,9.85,9.85,0,0,0-2.38-2.48,1.21,1.21,0,0,1-.38-1.62c.09-.09.09-.19.19-.19a1.42,1.42,0,0,1,.86-.38,1.09,1.09,0,0,1,.76.29,8.39,8.39,0,0,1,1.71,1.42,9,9,0,0,1,1.43,1.81,13.83,13.83,0,0,1,.95,2.1,8.48,8.48,0,0,1-.09,4.67Z" />
    </g>
  </g>
</svg>