<svg xmlns="http://www.w3.org/2000/svg" xmlns:xlink="http://www.w3.org/1999/xlink" viewBox="0 0 88 88">
  <defs>
    <style>.cls-nurse-circle{fill:url(#gradient_41);}.cls-nusrse-content{fill:url(#gradient_55);}</style>
    <linearGradient id="gradient_41" x1="-1643.42" y1="60.62" x2="-1643.42" y2="61.62" gradientTransform="matrix(88, 0, 0, -88, 144665.08, 5422.8)" gradientUnits="userSpaceOnUse">
      <stop offset="0" stop-color="#ff6158" />
      <stop offset="1" stop-color="#ffa09b" />
    </linearGradient>
    <linearGradient id="gradient_55" x1="44" y1="69" x2="44" y2="17" gradientUnits="userSpaceOnUse">
      <stop offset="0" stop-color="#ffe9e9" />
      <stop offset="1" stop-color="#fff" />
    </linearGradient>
  </defs>
  <g>
    <g>
      <path class="cls-nurse-circle" d="M44,0A44,44,0,1,1,0,44,44,44,0,0,1,44,0Z" />
      <path class="cls-nusrse-content" d="M50.35,50c9.83,0,17.81,5.06,17.81,14.9h0A4.28,4.28,0,0,1,63.77,69H24.23a4.28,4.28,0,0,1-4.39-4.15h0c0-9.84,8-14.9,17.81-14.9Zm7.36-27.24C57.71,17.76,51.55,17,44,17s-13.72.76-13.72,5.71v9s.07,2.32.08,2.42h0c.37,3.35,2.4,12.53,13.62,12.53S57.25,37.43,57.61,34.1h0l.08-2.39ZM39,24.65A1.7,1.7,0,0,1,40.66,23h2v-2a1.71,1.71,0,0,1,3.42,0v2h2a1.71,1.71,0,0,1,1.71,1.7h0a1.71,1.71,0,0,1-1.71,1.71h-2v2a1.71,1.71,0,0,1-3.42,0v-2h-2A1.7,1.7,0,0,1,39,24.65Z" />
    </g>
  </g>
</svg>