<?xml version="1.0" encoding="UTF-8"?>
<svg width="64px" height="64px" viewBox="0 0 64 64" version="1.1" xmlns="http://www.w3.org/2000/svg" xmlns:xlink="http://www.w3.org/1999/xlink">
    <!-- Generator: Sketch 64 (93537) - https://sketch.com -->
    <title>订单</title>
    <desc>Created with Sketch.</desc>
    <g id="页面-1" stroke="none" stroke-width="1" fill="none" fill-rule="evenodd">
        <g id="我的备份-3" transform="translate(-102.000000, -486.000000)">
            <g id="订单" transform="translate(30.000000, 368.000000)">
                <g id="待发货_线" transform="translate(72.000000, 118.000000)">
                    <rect id="矩形" x="0" y="0" width="64" height="64"></rect>
                    <path d="M4,13.88 L4,50.12 C4,51.679473 4.61949822,53.175074 5.72221213,54.2777879 C6.82492603,55.3805018 8.32052704,56 9.88,56 L54.12,56 C55.679473,56 57.175074,55.3805018 58.2777879,54.2777879 C59.3805018,53.175074 60,51.679473 60,50.12 L60,13.88 C60,10.6325657 57.3674343,8 54.12,8 L9.88,8 C6.63256567,8 4,10.6325657 4,13.88 Z M56,50.12 C56,50.618607 55.8019291,51.0967924 55.4493607,51.4493607 C55.0967924,51.8019291 54.618607,52 54.12,52 L9.88,52 C9.381393,52 8.90320764,51.8019291 8.55063925,51.4493607 C8.19807086,51.0967924 8,50.618607 8,50.12 L8,26 L56,26 L56,50.12 Z M16,26 L16,36.689 L16.216,36.535 C17.333,35.735 18.642,35.313 20,35.313 C21.358,35.313 22.667,35.735 23.784,36.535 L23.784,36.535 L24,36.689 L24,26 L28,26 L28,39.067 C28,40.787 26.714,42 25.326,42 C24.839,42 24.338,41.851 23.877,41.521 L23.877,41.521 L21.456,39.787 C21.014,39.471 20.507,39.313 20,39.313 C19.493,39.313 18.986,39.471 18.544,39.787 L18.544,39.787 L16.123,41.521 C15.662,41.851 15.161,42 14.674,42 C13.286,42 12,40.787 12,39.067 L12,39.067 L12,26 L16,26 Z M54.12,12 C55.1582953,12 56,12.8417047 56,13.88 L56,22 L8,22 L8,13.88 C8,12.8417047 8.84170467,12 9.88,12 L54.12,12 Z" id="形状" fill="#333333" fill-rule="nonzero"></path>
                    <path d="M50,37 L47,37 L47,34 C47,32.8954305 46.1045695,32 45,32 C43.8954305,32 43,32.8954305 43,34 L43,37 L40,37 C38.8954305,37 38,37.8954305 38,39 C38,40.1045695 38.8954305,41 40,41 L43,41 L43,44 C43,45.1045695 43.8954305,46 45,46 C46.1045695,46 47,45.1045695 47,44 L47,41 L50,41 C51.1045695,41 52,40.1045695 52,39 C52,37.8954305 51.1045695,37 50,37 Z" id="路径" fill="#12CD9F" fill-rule="nonzero"></path>
                </g>
            </g>
        </g>
    </g>
</svg>