<?xml version="1.0" encoding="UTF-8"?>
<svg width="64px" height="64px" viewBox="0 0 64 64" version="1.1" xmlns="http://www.w3.org/2000/svg" xmlns:xlink="http://www.w3.org/1999/xlink">
    <!-- Generator: Sketch 64 (93537) - https://sketch.com -->
    <title>订单</title>
    <desc>Created with Sketch.</desc>
    <g id="页面-1" stroke="none" stroke-width="1" fill="none" fill-rule="evenodd">
        <g id="我的备份-3" transform="translate(-412.000000, -486.000000)">
            <g id="订单" transform="translate(30.000000, 368.000000)">
                <g id="已完成_线" transform="translate(382.000000, 118.000000)">
                    <rect id="矩形" x="0" y="0" width="64" height="64"></rect>
                    <path d="M4,13.88 L4,50.12 C4,51.679473 4.61949822,53.175074 5.72221213,54.2777879 C6.82492603,55.3805018 8.32052704,56 9.88,56 L54.12,56 C55.679473,56 57.175074,55.3805018 58.2777879,54.2777879 C59.3805018,53.175074 60,51.679473 60,50.12 L60,13.88 C60,10.6325657 57.3674343,8 54.12,8 L9.88,8 C6.63256567,8 4,10.6325657 4,13.88 Z M56,50.12 C56,50.618607 55.8019291,51.0967924 55.4493607,51.4493607 C55.0967924,51.8019291 54.618607,52 54.12,52 L9.88,52 C9.381393,52 8.90320764,51.8019291 8.55063925,51.4493607 C8.19807086,51.0967924 8,50.618607 8,50.12 L8,26 L56,26 L56,50.12 Z M56,13.88 L56,22 L8,22 L8,13.88 C8,12.8417047 8.84170467,12 9.88,12 L54.12,12 C55.1582953,12 56,12.8417047 56,13.88 Z" id="形状" fill="#333333" fill-rule="nonzero"></path>
                    <path d="M16,37 L24,37 C25.1045695,37 26,36.1045695 26,35 C26,33.8954305 25.1045695,33 24,33 L16,33 C14.8954305,33 14,33.8954305 14,35 C14,36.1045695 14.8954305,37 16,37 Z" id="路径" fill="#333333" fill-rule="nonzero"></path>
                    <path d="M16,45 L20,45 C21.1045695,45 22,44.1045695 22,43 C22,41.8954305 21.1045695,41 20,41 L16,41 C14.8954305,41 14,41.8954305 14,43 C14,44.1045695 14.8954305,45 16,45 Z" id="路径" fill="#333333" fill-rule="nonzero"></path>
                    <path d="M38.1675595,43.4401204 C38.4441478,43.7057383 38.7912674,43.8862405 39.1675595,43.9601204 C39.2937649,43.9754079 39.4213541,43.9754079 39.5475595,43.9601204 C39.6885925,43.9917876 39.8331054,44.0052307 39.9775595,44.0001204 C40.3538516,43.9262405 40.7009712,43.7457383 40.9775595,43.4801204 L49.3975595,35.3201204 C49.7666474,34.9639396 49.9751191,34.473044 49.9751191,33.9601204 C49.9751191,33.4471968 49.7666474,32.9563011 49.3975595,32.6001204 C49.0234167,32.2184091 48.5120513,32.0023392 47.9775595,32.0001204 C47.4522527,31.9943608 46.9457716,32.1955164 46.5675595,32.5601204 L39.5675595,39.3601204 L35.3575595,35.2801204 C34.9868045,34.9227589 34.4924986,34.722171 33.9775595,34.7201204 C33.4557043,34.7169854 32.9532927,34.9179501 32.5775595,35.2801204 C32.2084716,35.6363011 32,36.1271968 32,36.6401204 C32,37.153044 32.2084716,37.6439396 32.5775595,38.0001204 L38.1675595,43.4401204 Z" id="路径" fill="#12CD9F" fill-rule="nonzero"></path>
                </g>
            </g>
        </g>
    </g>
</svg>