<?xml version="1.0" encoding="UTF-8"?>
<svg width="64px" height="64px" viewBox="0 0 64 64" version="1.1" xmlns="http://www.w3.org/2000/svg" xmlns:xlink="http://www.w3.org/1999/xlink">
    <!-- Generator: Sketch 64 (93537) - https://sketch.com -->
    <title>订单</title>
    <desc>Created with Sketch.</desc>
    <g id="页面-1" stroke="none" stroke-width="1" fill="none" fill-rule="evenodd">
        <g id="我的备份-3" transform="translate(-256.000000, -486.000000)">
            <g id="订单" transform="translate(30.000000, 368.000000)">
                <g id="待发货_线" transform="translate(226.000000, 118.000000)">
                    <g id="编组-5">
                        <rect id="矩形" x="0" y="0" width="64" height="64"></rect>
                        <path d="M50.5,52 C48.57,52 47,50.43 47,48.5 C47,46.57 48.57,45 50.5,45 C52.43,45 54,46.57 54,48.5 C54,50.43 52.43,52 50.5,52 L50.5,52 Z M43,22 L52.78,22 C53.258,22 53.72,22.171 54.082,22.481 L57.302,25.241 C57.745,25.621 58,26.175 58,26.76 L58,46 L57.564,46 C56.533,43.089 53.765,41 50.5,41 C47.236,41 44.467,43.089 43.436,46 L43,46 L43,22 Z M21.564,46 C20.533,43.089 17.765,41 14.5,41 C11.236,41 8.467,43.089 7.436,46 L6,46 L6,14 C6,12.897 6.897,12 8,12 L37,12 C38.103,12 39,12.897 39,14 L39,18 L39,46 L21.564,46 Z M11,48.5 C11,46.57 12.57,45 14.5,45 C16.43,45 18,46.57 18,48.5 C18,50.43 16.43,52 14.5,52 C12.57,52 11,50.43 11,48.5 Z M56.686,19.444 C55.598,18.513 54.213,18 52.78,18 L43,18 L43,14 C43,10.687 40.313,8 37,8 L8,8 C4.687,8 2,10.687 2,14 L2,47 C2,48.657 3.343,50 5,50 L7.15,50 C7.846,53.423 10.872,56 14.5,56 C18.129,56 21.154,53.423 21.85,50 L43.15,50 C43.846,53.423 46.872,56 50.5,56 C54.129,56 57.154,53.423 57.85,50 L59,50 C60.657,50 62,48.657 62,47 L62,26.76 C62,25.008 61.234,23.344 59.904,22.204 L56.686,19.444 Z" id="Fill-3" fill="#333333"></path>
                        <path d="M22,29 L22,22 C22,20.9 21.1,20 20,20 C18.9,20 18,20.9 18,22 L18,29 L18,31 C18,32.1045695 18.8954305,33 20,33 L22,33 L22,33 L29,33 C30.1,33 31,32.1 31,31 C31,29.9 30.1,29 29,29 L22,29 Z" id="Fill-1" fill="#12CD9F"></path>
                    </g>
                </g>
            </g>
        </g>
    </g>
</svg>