<?xml version="1.0" encoding="UTF-8"?>
<svg width="64px" height="64px" viewBox="0 0 64 64" version="1.1" xmlns="http://www.w3.org/2000/svg" xmlns:xlink="http://www.w3.org/1999/xlink">
    <!-- Generator: Sketch 64 (93537) - https://sketch.com -->
    <title>全部订单_线</title>
    <desc>Created with Sketch.</desc>
    <g id="页面-1" stroke="none" stroke-width="1" fill="none" fill-rule="evenodd">
        <g id="我的备份-3" transform="translate(-584.000000, -486.000000)">
            <g id="订单" transform="translate(30.000000, 368.000000)">
                <g id="全部订单_线" transform="translate(554.000000, 118.000000)">
                    <rect id="矩形" x="0" y="0" width="64" height="64"></rect>
                    <path d="M50.12,4 L13.88,4 C10.6325657,4 8,6.63256567 8,9.88 L8,54.12 C8,57.3674343 10.6325657,60 13.88,60 L50.12,60 C51.679473,60 53.175074,59.3805018 54.2777879,58.2777879 C55.3805018,57.175074 56,55.679473 56,54.12 L56,9.88 C56,8.32052704 55.3805018,6.82492603 54.2777879,5.72221213 C53.175074,4.61949822 51.679473,4 50.12,4 Z M22,12 L22,8 L42,8 L42,12 L22,12 Z M52,54.12 C52,54.618607 51.8019291,55.0967924 51.4493607,55.4493607 C51.0967924,55.8019291 50.618607,56 50.12,56 L13.88,56 C12.8417047,56 12,55.1582953 12,54.12 L12,9.88 C12,8.84170467 12.8417047,8 13.88,8 L18,8 L18,14 C18,15.1045695 18.8954305,16 20,16 L44,16 C45.1045695,16 46,15.1045695 46,14 L46,8 L50.12,8 C50.618607,8 51.0967924,8.19807086 51.4493607,8.55063925 C51.8019291,8.90320764 52,9.381393 52,9.88 L52,54.12 Z" id="形状" fill="#333333" fill-rule="nonzero"></path>
                    <path d="M44,24 L20,24 C18.8954305,24 18,24.8954305 18,26 C18,27.1045695 18.8954305,28 20,28 L44,28 C45.1045695,28 46,27.1045695 46,26 C46,24.8954305 45.1045695,24 44,24 Z" id="路径" fill="#12CD9F" fill-rule="nonzero"></path>
                    <path d="M36,34 L20,34 C18.8954305,34 18,34.8954305 18,36 C18,37.1045695 18.8954305,38 20,38 L36,38 C37.1045695,38 38,37.1045695 38,36 C38,34.8954305 37.1045695,34 36,34 Z" id="路径" fill="#12CD9F" fill-rule="nonzero"></path>
                    <path d="M28,44 L20,44 C18.8954305,44 18,44.8954305 18,46 C18,47.1045695 18.8954305,48 20,48 L28,48 C29.1045695,48 30,47.1045695 30,46 C30,44.8954305 29.1045695,44 28,44 Z" id="路径" fill="#12CD9F" fill-rule="nonzero"></path>
                </g>
            </g>
        </g>
    </g>
</svg>