<svg xmlns="http://www.w3.org/2000/svg" viewBox="0 0 56 48">
  <g>
    <g>
      <path d="M56,42.12V15L53.19,4.45A6,6,0,0,0,47.39,0H8.61a6,6,0,0,0-5.8,4.45L0,15V42.12A5.88,5.88,0,0,0,5.88,48H50.12A5.88,5.88,0,0,0,56,42.12ZM8.61,4H47.39a2,2,0,0,1,1.93,1.48L51.59,14H4.41L6.68,5.48A2,2,0,0,1,8.61,4ZM12,18h8V28.69l-.22-.16a6.47,6.47,0,0,0-7.56,0l-.22.16ZM50.12,44H5.88A1.88,1.88,0,0,1,4,42.12V18H8V31.07A2.81,2.81,0,0,0,10.67,34a2.47,2.47,0,0,0,1.45-.48l2.42-1.73a2.46,2.46,0,0,1,2.92,0l2.42,1.73a2.47,2.47,0,0,0,1.45.48A2.81,2.81,0,0,0,24,31.07V18H52V42.12A1.88,1.88,0,0,1,50.12,44Z" />
      <path d="M46,30H43V27a2,2,0,0,0-4,0v3H36a2,2,0,0,0,0,4h3v3a2,2,0,0,0,4,0V34h3a2,2,0,0,0,0-4Z" />
    </g>
  </g>
</svg>