<?xml version="1.0" encoding="utf-8" ?>
<!-- Generator: Adobe Illustrator 24.0.0, SVG Export Plug-In . SVG Version: 6.00 Build 0)  -->
<svg version="1.1" id="layer_1" xmlns="http://www.w3.org/2000/svg" xmlns:xlink="http://www.w3.org/1999/xlink" x="0px" y="0px" viewBox="0 0 56 48" style="enable-background:new 0 0 56 48;" xml:space="preserve">
	<style type="text/css">
	.st0{fill:url(#layer_2_2_);}
</style>
	<linearGradient id="layer_2_2_" gradientUnits="userSpaceOnUse" x1="28" y1="48" x2="28" y2="-1.131376e-06">
		<stop offset="0" style="stop-color:#12CD9F" />
		<stop offset="1" style="stop-color:#71E1C5" />
	</linearGradient>
	<path id="layer_2_1_" class="st0" d="M55.7,14l-2.5-9.6C52.5,1.8,50.1,0,47.4,0H8.6C5.9,0,3.5,1.8,2.8,4.4L0.3,14H55.7z M24,18
	v13.1c0.1,1.5-1.1,2.9-2.7,2.9c-0.5,0-1-0.2-1.5-0.5l-2.4-1.7c-0.9-0.6-2.1-0.6-2.9,0l-2.4,1.7c-0.4,0.3-0.9,0.5-1.4,0.5
	c-1.5-0.1-2.7-1.4-2.7-2.9V18H0v24.1C0,45.4,2.6,48,5.9,48c0,0,0,0,0,0h44.2c3.2,0,5.9-2.6,5.9-5.9l0,0V18H24z M46,33h-3v3
	c0,1.1-0.9,2-2,2s-2-0.9-2-2v-3h-3c-1.1,0-2-0.9-2-2c0-1.1,0.9-2,2-2h3v-3c0-1.1,0.9-2,2-2s2,0.9,2,2v3h3c1.1,0,2,0.9,2,2
	C48,32.1,47.1,33,46,33z M16,27.3c1.4,0,2.7,0.4,3.8,1.2l0.2,0.2V18h-8v10.7l0.2-0.2C13.3,27.7,14.6,27.3,16,27.3z" />
</svg>