<?xml version="1.0" encoding="utf-8" ?>
<!-- Generator: Adobe Illustrator 24.0.0, SVG Export Plug-In . SVG Version: 6.00 Build 0)  -->
<svg version="1.1" id="layer_1" xmlns="http://www.w3.org/2000/svg" xmlns:xlink="http://www.w3.org/1999/xlink" x="0px" y="0px" viewBox="0 0 56 48" style="enable-background:new 0 0 56 48;" xml:space="preserve">
	<style type="text/css">
	.st0{fill:url(#layer_2_2_);}
</style>
	<linearGradient id="layer_2_2_" gradientUnits="userSpaceOnUse" x1="28" y1="48" x2="28" y2="-1.131376e-06">
		<stop offset="0" style="stop-color:#12CD9F" />
		<stop offset="1" style="stop-color:#71E1C5" />
	</linearGradient>
	<path id="layer_2_1_" class="st0" d="M55.7,14l-2.5-9.6C52.5,1.8,50.1,0,47.4,0H8.6C5.9,0,3.5,1.8,2.8,4.4L0.3,14H55.7z M0,42.1
	C0,45.4,2.6,48,5.9,48c0,0,0,0,0,0h44.2c3.2,0,5.9-2.6,5.9-5.9l0,0V18H0V42.1z M28.6,28.3L28.6,28.3c0.8-0.8,2-0.8,2.8,0l4.2,4.1
	l7-6.8c0.8-0.8,2-0.8,2.8,0l0,0c0.8,0.7,0.8,1.9,0,2.7c0,0,0,0,0,0L37,36.4c-0.8,0.8-2,0.8-2.8,0L28.6,31
	C27.8,30.3,27.8,29.1,28.6,28.3C28.5,28.3,28.6,28.3,28.6,28.3z M12,25h8c1.1,0,2,0.9,2,2s-0.9,2-2,2h-8c-1.1,0-2-0.9-2-2
	S10.9,25,12,25z M12,33h4c1.1,0,2,0.9,2,2s-0.9,2-2,2h-4c-1.1,0-2-0.9-2-2S10.9,33,12,33z" />
</svg>