<svg xmlns="http://www.w3.org/2000/svg" viewBox="0 0 20 20">
  <defs>
    <style>.cls-pharmacy{fill:#444;}.cls-pharmacy-rect{fill:none;}</style>
  </defs>
  <g>
    <g>
      <path class="cls-pharmacy" d="M18.7,6.4c0-.3-.2-.6-1.2-2.9-.2-.5-.4-1-.6-1.4a1.3,1.3,0,0,0-1.2-.8H4.3a1.3,1.3,0,0,0-1.2.8c-.1.3-.4.9-.6,1.5C1.4,5.9,1.3,6.2,1.3,6.5A3.92,3.92,0,0,0,2.6,9.37v8a1.32,1.32,0,0,0,1.3,1.3H16.1a1.49,1.49,0,0,0,1.4-1.3V9.19A4,4,0,0,0,18.7,6.4ZM3.7,4.1a16.59,16.59,0,0,0,.6-1.6H15.7A7.72,7.72,0,0,0,16.3,4c.3.8.9,2.1,1,2.4A2.48,2.48,0,0,1,16,8.6a2.13,2.13,0,0,1-1.2.3A2.46,2.46,0,0,1,12.9,8a.67.67,0,0,0-1,0A2.46,2.46,0,0,1,8.1,8a.44.44,0,0,0-.5-.1c-.2,0-.4,0-.5.2A2.46,2.46,0,0,1,5.2,9,2.13,2.13,0,0,1,4,8.7a2.23,2.23,0,0,1-.24-.19.6.6,0,0,0-.22-.16A2.53,2.53,0,0,1,2.6,6.5C2.7,6.2,3.3,4.9,3.7,4.1Zm.2,13.3V10.15a4.48,4.48,0,0,0,1.2.15,3.88,3.88,0,0,0,2.6-1,3.41,3.41,0,0,0,2.4.9,3.58,3.58,0,0,0,2.4-.9,3.41,3.41,0,0,0,2.4.9A4.5,4.5,0,0,0,16.1,10V17.4Z" />
      <path class="cls-pharmacy" d="M11.9,13.1H10.7V11.9a.7.7,0,0,0-1.4,0v1.2H8a.68.68,0,0,0-.7.7.85.85,0,0,0,.7.7H9.3v1.3a.7.7,0,0,0,1.4,0V14.5h1.2a.7.7,0,1,0,0-1.4Z" />
      <rect class="cls-pharmacy-rect" width="20" height="20" />
    </g>
  </g>
</svg>