<svg xmlns="http://www.w3.org/2000/svg" viewBox="0 0 42 42">
  <defs>
    <style>.cls-phone{fill:none;}</style>
  </defs>
  <g>
    <g>
      <path d="M14.8,8l.26,0c.7.13,1.29,1,1.67,1.72,1.49,2.87.91,3.24-.28,4l-.59.36-.2.12a2.33,2.33,0,0,0-1.06,1.52c-.11.53-.47,2.14,3.08,7.43C21.58,29,23.26,29,24,29a2,2,0,0,0,.49-.05h.28l.48-.29.08-.05.73-.45a6.45,6.45,0,0,1,.65-.35,1.76,1.76,0,0,1,.7-.18c.65,0,1.54.67,2.65,2,.56.66,1.16,1.57.9,2.2-.15.36-.49.74-1.65,1.42l-.11.06-1,.58a1.38,1.38,0,0,1-.68.15c-2.66,0-7.84-3.62-11.91-9.68-3.85-5.75-5-11.08-4.46-13.6a2,2,0,0,1,.65-1.2l.44-.27L12.67,9A4.65,4.65,0,0,1,14.8,8m0-2a6.07,6.07,0,0,0-3.21,1.28l-.46.29-.41.26c-3.16,1.94-1.88,10,3.21,17.6C18.22,31.83,23.94,36,27.5,36a3.25,3.25,0,0,0,1.73-.44l1.05-.62a5.22,5.22,0,0,0,2.49-2.37c.53-1.26.14-2.67-1.2-4.27-1.58-1.87-2.88-2.71-4.19-2.71a3.73,3.73,0,0,0-1.52.35,8.29,8.29,0,0,0-.86.46l-.83.51h0A.33.33,0,0,1,24,27c-.77,0-2.55-1.82-4.63-4.92-2.25-3.36-3.22-5.78-2.64-6.13l.83-.51c2.37-1.47,2.78-3.11,1-6.58-.86-1.64-1.88-2.55-3.09-2.76A3.15,3.15,0,0,0,14.8,6Z" />
      <rect class="cls-phone" width="42" height="42" />
    </g>
  </g>
</svg>