<svg xmlns="http://www.w3.org/2000/svg" viewBox="0 0 42 42">
  <defs>
    <style>.cls-phone-active{fill:none;}</style>
  </defs>
  <g>
    <g>
      <path d="M24.17,26.91,25,26.4a8.29,8.29,0,0,1,.86-.46c1.88-.84,3.53-.23,5.71,2.36,1.34,1.6,1.73,3,1.2,4.27a5.22,5.22,0,0,1-2.49,2.37l-1.05.62C26.11,37.47,19,33,13.93,25.43S7.56,9.77,10.72,7.83l.41-.26.46-.29c1.59-1,2.62-1.44,3.82-1.22s2.23,1.12,3.09,2.76c1.81,3.47,1.4,5.11-1,6.58l-.83.51c-.58.35.39,2.77,2.64,6.13s4.2,5.26,4.83,4.87Z" />
      <rect class="cls-phone-active" width="42" height="42" />
    </g>
  </g>
</svg>