<svg xmlns="http://www.w3.org/2000/svg" viewBox="0 0 120 120">
  <defs>
    <style>.cls-sad{fill:#333;}</style>
  </defs>
  <g>
    <g>
      <path class="cls-sad" d="M60,0A60,60,0,1,0,94.26,109.26a4.09,4.09,0,1,0-4.68-6.71,51.76,51.76,0,1,1,14.74-15.68,4.09,4.09,0,1,0,7,4.24A60,60,0,0,0,60,0Z" />
      <path class="cls-sad" d="M42.5,92.43a4.64,4.64,0,0,0,3-1.5,19.18,19.18,0,0,1,29.23,0,4.64,4.64,0,0,0,3,1.5c3,0,4.88-3.76,3-6a26.65,26.65,0,0,0-41.23,0C37.25,88.67,39.13,92.43,42.5,92.43Z" />
      <circle class="cls-sad" cx="32.73" cy="49.09" r="8.18" />
      <circle class="cls-sad" cx="87.27" cy="49.09" r="8.18" />
    </g>
  </g>
</svg>