<svg xmlns="http://www.w3.org/2000/svg" viewBox="0 0 42 42">
  <defs>
    <style>.cls-share{fill:none;}</style>
  </defs>
  <g>
    <g>
      <path d="M34,28a6,6,0,0,0-4.35,1.87l-10.27-5.6a9,9,0,1,0-1.55,2.58L28.2,32.5A5.71,5.71,0,0,0,28,34a6,6,0,1,0,6-6ZM11,27a6,6,0,1,1,6-6A6,6,0,0,1,11,27ZM34,37a3,3,0,1,1,3-3A3,3,0,0,1,34,37Z" />
      <path d="M22.5,16a1.42,1.42,0,0,0,.74-.2l6.42-3.66A6,6,0,1,0,28,8a5.92,5.92,0,0,0,.2,1.52L21.76,13.2A1.5,1.5,0,0,0,22.5,16ZM34,5a3,3,0,1,1-3,3A3,3,0,0,1,34,5Z" />
      <rect class="cls-share" width="42" height="42" />
    </g>
  </g>
</svg>