<svg xmlns="http://www.w3.org/2000/svg" viewBox="0 0 20 20">
  <defs>
    <style>.cls-sheet{fill:#444;}.cls-sheet-rect{fill:none;}</style>
  </defs>
  <g>
    <g>
      <path class="cls-sheet" d="M16.2,18.6H3.8a1.37,1.37,0,0,1-1.4-1.4V2.8A1.37,1.37,0,0,1,3.8,1.4H16.1a1.37,1.37,0,0,1,1.4,1.4V17.2A1.35,1.35,0,0,1,16.2,18.6ZM3.8,2.8V17.2H16.1V2.8Z" />
      <path class="cls-sheet" d="M14.2,7.7h0a.68.68,0,0,1-.7.7H6.6a.68.68,0,0,1-.7-.7h0A.68.68,0,0,1,6.6,7h6.9A.68.68,0,0,1,14.2,7.7Z" />
      <path class="cls-sheet" d="M14.2,12.3h0a.68.68,0,0,1-.7.7H6.6a.68.68,0,0,1-.7-.7h0a.68.68,0,0,1,.7-.7h6.9A.68.68,0,0,1,14.2,12.3Z" />
      <rect class="cls-sheet-rect" width="20" height="20" />
    </g>
  </g>
</svg>