<svg xmlns="http://www.w3.org/2000/svg" viewBox="0 0 120 120">
  <defs>
    <style>.cls-smile{fill:#12CD9F;}</style>
  </defs>
  <g>
    <g>
      <path class="cls-smile" d="M60,0A60,60,0,1,0,94.26,109.26a4.09,4.09,0,1,0-4.68-6.71,51.76,51.76,0,1,1,14.74-15.68,4.09,4.09,0,1,0,7,4.24A60,60,0,0,0,60,0Z" />
      <path class="cls-smile" d="M59.88,92.43A26.54,26.54,0,0,0,80.5,82.67c2.25-2.25.37-6-3-6a4.64,4.64,0,0,0-3,1.5,19.18,19.18,0,0,1-29.23,0,4.64,4.64,0,0,0-3-1.5c-3,0-4.88,3.76-3,6A26.53,26.53,0,0,0,59.88,92.43Z" />
      <circle class="cls-smile" cx="32.73" cy="49.09" r="8.18" />
      <circle class="cls-smile" cx="87.27" cy="49.09" r="8.18" />
    </g>
  </g>
</svg>