<svg xmlns="http://www.w3.org/2000/svg" viewBox="0 0 38 38">
  <g>
    <g>
      <path d="M19,3a.37.37,0,0,1,.36.23l3.92,8.42a3,3,0,0,0,2.26,1.7l9.12,1.4A.37.37,0,0,1,35,15a.42.42,0,0,1-.09.45l-6.71,6.92A3,3,0,0,0,27.36,25l1.55,9.55a.39.39,0,0,1-.08.34.45.45,0,0,1-.31.16.39.39,0,0,1-.19-.06l-7.87-4.38a3,3,0,0,0-2.92,0L9.67,34.94a.36.36,0,0,1-.19.06.45.45,0,0,1-.31-.16.39.39,0,0,1-.08-.34L10.64,25a3,3,0,0,0-.81-2.56L3.12,15.47A.42.42,0,0,1,3,15a.37.37,0,0,1,.31-.27l9.12-1.4a3,3,0,0,0,2.26-1.7l3.92-8.42A.37.37,0,0,1,19,3m0-3a3.38,3.38,0,0,0-3.08,2L12,10.38l-9.11,1.4A3.43,3.43,0,0,0,1,17.55l6.71,6.92L6.13,34a3.42,3.42,0,0,0,3.35,4,3.47,3.47,0,0,0,1.65-.43L19,33.18l7.87,4.39a3.47,3.47,0,0,0,1.65.43,3.42,3.42,0,0,0,3.35-4l-1.55-9.55L37,17.55a3.43,3.43,0,0,0-1.92-5.77L26,10.38,22.08,2A3.38,3.38,0,0,0,19,0Z" />
    </g>
  </g>
</svg>