<svg xmlns="http://www.w3.org/2000/svg" viewBox="0 0 36 44">
  <g>
    <g>
      <path d="M21,19V8.27A8.18,8.18,0,0,0,13.53,0L13,0A8,8,0,0,0,5,8V19a4.15,4.15,0,0,1-1.24,2.9,13,13,0,0,0,7.76,22c.5,0,1,.08,1.48.08a13,13,0,0,0,9.23-22.13A4.13,4.13,0,0,1,21,19ZM13,40a9.2,9.2,0,0,1-1-.06A9,9,0,0,1,6.6,24.69,8.11,8.11,0,0,0,9,19V8a4,4,0,0,1,4-4h.27A4.21,4.21,0,0,1,17,8.27V19a8.08,8.08,0,0,0,2.39,5.68A9,9,0,0,1,13,40Z" />
      <path d="M34,4H25a2,2,0,0,0,0,4h9a2,2,0,0,0,0-4Z" />
      <path d="M25,14h4a2,2,0,0,0,0-4H25a2,2,0,0,0,0,4Z" />
      <path d="M31,16H25a2,2,0,0,0,0,4h6a2,2,0,0,0,0-4Z" />
      <path d="M15,26.43V12a2,2,0,0,0-4,0V26.43a5,5,0,1,0,4,0Z" />
    </g>
  </g>
</svg>