<svg xmlns="http://www.w3.org/2000/svg" viewBox="0 0 42 42">
  <defs>
    <style>.cls-thumb{fill:none;}</style>
  </defs>
  <g>
    <g>
      <rect class="cls-thumb" width="42" height="42" />
      <path d="M29,15H26l.1-.23a6,6,0,0,0-3.79-7.55A4.12,4.12,0,0,0,21,7a4.19,4.19,0,0,0-3.67,2.15L14,15H13a6,6,0,0,0-6,6v8a6,6,0,0,0,6,6H23A12,12,0,0,0,35,23V21A6,6,0,0,0,29,15ZM10,29V21a3,3,0,0,1,3-3V32A3,3,0,0,1,10,29Zm22-6a9,9,0,0,1-9,9H16V17.21a2.86,2.86,0,0,0,.61-.73l3.32-5.87A1.21,1.21,0,0,1,21,10h0a1.21,1.21,0,0,1,.38.06,3,3,0,0,1,1.74,1.5,3,3,0,0,1,.2,2.14l0,.06A3,3,0,0,0,26,18h3a3,3,0,0,1,3,3Z" />
    </g>
  </g>
</svg>