<svg xmlns="http://www.w3.org/2000/svg" xmlns:xlink="http://www.w3.org/1999/xlink" viewBox="0 0 68 68">
  <defs>
    <style>.cls-trank-blue-circle{fill:url(#gradient_24);}.cls-trank-blue-round{fill:url(#gradient_30);}.cls-trank-blue-round-2{fill:url(#gradient_30-2);}.cls-trank-blue-content{fill:url(#gradient_30-3);}</style>
    <linearGradient id="gradient_24" x1="-4.44" y1="-384.54" x2="-4.44" y2="-383.13" gradientTransform="matrix(48, 0, 0, -48, 246.96, -18390)" gradientUnits="userSpaceOnUse">
      <stop offset="0" stop-color="#4d9bff" />
      <stop offset="1" stop-color="#94c3ff" />
    </linearGradient>
    <linearGradient id="gradient_30" x1="23.49" y1="51.89" x2="23.49" y2="42.89" gradientUnits="userSpaceOnUse">
      <stop offset="0" stop-color="#d4e9ff" />
      <stop offset="1" stop-color="#fff" />
    </linearGradient>
    <linearGradient id="gradient_30-2" x1="47.49" y1="51.89" x2="47.49" y2="42.89" xlink:href="#gradient_30" />
    <linearGradient id="gradient_30-3" x1="35.49" y1="47.39" x2="35.49" y2="18.89" xlink:href="#gradient_30" />
  </defs>
  <g>
    <g>
      <path class="cls-trank-blue-circle" d="M34,0A34,34,0,1,1,0,34,34,34,0,0,1,34,0Z" />
      <circle class="cls-trank-blue-round" cx="23.49" cy="47.39" r="4.5" />
      <circle class="cls-trank-blue-round-2" cx="47.49" cy="47.39" r="4.5" />
      <path class="cls-trank-blue-content" d="M54.92,29.55,52.5,27.48a4.48,4.48,0,0,0-2.93-1.09H42.24v-3a4.51,4.51,0,0,0-4.5-4.5H19a4.5,4.5,0,0,0-4.5,4.5V45.14a2.25,2.25,0,0,0,2.25,2.25,6.75,6.75,0,0,1,13.5,0h10.5a6.75,6.75,0,0,1,13.5,0,2.25,2.25,0,0,0,2.25-2.25V33A4.51,4.51,0,0,0,54.92,29.55ZM32.49,30.89H30.24v2.25a1.13,1.13,0,1,1-2.25,0V30.89H25.74a1.13,1.13,0,1,1,0-2.25H28V26.39a1.13,1.13,0,0,1,2.25,0v2.25h2.25a1.13,1.13,0,0,1,0,2.25Zm21.75,5.25H44.49v-7.5h5.28a1.75,1.75,0,0,1,1.12.41l2.75,2.37a1.7,1.7,0,0,1,.6,1.29Z" />
    </g>
  </g>
</svg>