<?xml version="1.0" encoding="utf-8" ?>
<!-- Generator: Adobe Illustrator 24.0.0, SVG Export Plug-In . SVG Version: 6.00 Build 0)  -->
<svg version="1.1" id="layer_1" xmlns="http://www.w3.org/2000/svg" xmlns:xlink="http://www.w3.org/1999/xlink" x="0px" y="0px" viewBox="0 0 56 48" style="enable-background:new 0 0 56 48;" xml:space="preserve">
	<style type="text/css">
	.st0{fill:url(#layer_2_2_);}
</style>
	<linearGradient id="layer_2_2_" gradientUnits="userSpaceOnUse" x1="28" y1="48" x2="28" y2="-9.094947e-13">
		<stop offset="0" style="stop-color:#12CD9F" />
		<stop offset="1" style="stop-color:#71E1C5" />
	</linearGradient>
	<path id="layer_2_1_" class="st0" d="M12,36c3.3,0,6,2.7,6,6s-2.7,6-6,6s-6-2.7-6-6S8.7,36,12,36z M44,36c3.3,0,6,2.7,6,6
	s-2.7,6-6,6s-6-2.7-6-6S40.7,36,44,36z M53.9,14.2l-3.2-2.8c-1.1-0.9-2.5-1.4-3.9-1.4H40V6c0-3.3-2.7-6-6-6H6C2.7,0,0,2.7,0,6v33
	c0,1.7,1.3,3,3,3c0-5,4-9,9-9s9,4,9,9h14c0-5,4-9,9-9s9,4,9,9c1.7,0,3-1.3,3-3V18.8C56,17,55.2,15.3,53.9,14.2z M25,18h-3v3
	c0,1.1-0.9,2-2,2s-2-0.9-2-2v-3h-3c-1.1,0-2-0.9-2-2s0.9-2,2-2h3v-3c0-1.1,0.9-2,2-2s2,0.9,2,2v3h3c1.1,0,2,0.9,2,2S26.1,18,25,18z
	 M53,23H40V13h7c0.5,0,1.1,0.2,1.5,0.6l3.7,3.2c0.5,0.4,0.8,1.1,0.8,1.7V23z" />
</svg>