<svg xmlns="http://www.w3.org/2000/svg" viewBox="0 0 56 44">
  <g>
    <g>
      <circle cx="12" cy="38" r="6" />
      <circle cx="44" cy="38" r="6" />
      <path d="M53.9,14.2l-3.21-2.76A6,6,0,0,0,46.78,10H37V6a6,6,0,0,0-6-6H6A6,6,0,0,0,0,6V35a3,3,0,0,0,3,3,9,9,0,0,1,18,0H35a9,9,0,0,1,18,0,3,3,0,0,0,3-3V18.76A6,6,0,0,0,53.9,14.2ZM24,16H21v3a1.5,1.5,0,0,1-3,0V16H15a1.5,1.5,0,0,1,0-3h3V10a1.5,1.5,0,0,1,3,0v3h3a1.5,1.5,0,0,1,0,3Zm29,7H40V13h7a2.24,2.24,0,0,1,1.48.55L52.2,16.7a2.25,2.25,0,0,1,.8,1.73Z" />
    </g>
  </g>
</svg>