<svg t="1571305536138" class="icon" viewBox="0 0 1024 1024" version="1.1" xmlns="http://www.w3.org/2000/svg" p-id="3212" width="81" height="81">
  <path d="M767.823 409.17c99.522 35.094 170.844 129.966 170.844 241.497 0 42.71-10.497 83.978-30.266 120.84-1.791 3.34-4.989 8.935-9.687 16.958l14.609 53.566c6.515 23.888-15.404 45.807-39.292 39.292l-53.646-14.63a862.319 862.319 0 0 0-6.234 3.667c-39.411 23.632-84.557 36.307-131.484 36.307-77.996 0-147.846-34.88-194.8-89.894a352.61 352.61 0 0 1-56.647 4.56c-63.339 0-124.257-16.854-177.466-48.297-1.844-1.09-6.42-3.736-13.638-7.888l-80.543 21.647c-23.913 6.427-45.75-15.574-39.147-39.438l21.794-78.751c-7.919-13.276-13.176-22.3-15.907-27.32C99.547 592.104 85.333 537.031 85.333 480c0-188.619 154.963-341.333 345.887-341.333 159.92 0 297.988 108.005 335.824 259.293a31.936 31.936 0 0 1 0.779 11.21z m-68.115-13.945C662.877 282.034 555.184 202.667 431.22 202.667c-155.785 0-281.887 124.272-281.887 277.333 0 46.267 11.503 90.834 33.194 130.694 2.88 5.293 10.181 17.714 21.62 36.754a32 32 0 0 1 3.411 25.015l-10.513 37.99 39.234-10.545a32 32 0 0 1 24.232 3.148c14.269 8.187 22.778 13.094 25.802 14.881 43.406 25.65 93.09 39.396 144.907 39.396 6.16 0 12.294-0.194 18.394-0.58-14.737-32.321-22.947-68.245-22.947-106.086 0-141.385 114.615-256 256-256 5.726 0 11.409 0.188 17.041 0.558z m133.708 397.05a32 32 0 0 1 3.337-24.723c8.097-13.675 13.271-22.608 15.247-26.293 14.81-27.616 22.667-58.502 22.667-90.592 0-106.039-85.962-192-192-192-106.039 0-192 85.961-192 192 0 106.038 85.961 192 192 192 35.252 0 69.035-9.485 98.572-27.196 2.208-1.323 8.287-4.881 18.515-10.836a32 32 0 0 1 24.522-3.22l12.567 3.428-3.427-12.567z m-502.75-365.608C307.104 426.667 288 407.564 288 384s19.103-42.667 42.667-42.667 42.666 19.103 42.666 42.667-19.102 42.667-42.666 42.667z m192 0C499.104 426.667 480 407.564 480 384s19.103-42.667 42.667-42.667 42.666 19.103 42.666 42.667-19.102 42.667-42.666 42.667zM608 629.333c-17.673 0-32-14.327-32-32 0-17.673 14.327-32 32-32 17.673 0 32 14.327 32 32 0 17.673-14.327 32-32 32z m149.333 0c-17.673 0-32-14.327-32-32 0-17.673 14.327-32 32-32 17.673 0 32 14.327 32 32 0 17.673-14.327 32-32 32z" p-id="3213"></path>
</svg>